<svg width="155" height="65" viewBox="0 0 155 65" fill="none" xmlns="http://www.w3.org/2000/svg">
<path fill-rule="evenodd" clip-rule="evenodd" d="M110.653 10.9901H112.564L112.522 11.7218C112.508 12.0306 112.464 12.2485 112.394 12.3741C112.325 12.4997 112.248 12.5819 112.163 12.6223C112.123 12.6382 111.972 12.6584 111.708 12.6815L111.659 12.8373H114.327L114.373 12.6815C114.179 12.667 114.04 12.6165 113.957 12.5285C113.874 12.4419 113.832 12.3019 113.832 12.11C113.832 12.0595 113.836 11.9109 113.846 11.6655L114.051 6.97372H113.846L109.475 11.8228C109.156 12.1749 108.913 12.4073 108.743 12.5198C108.616 12.6021 108.47 12.6555 108.306 12.6815L108.261 12.8373H110.103V12.6815C109.923 12.6728 109.796 12.6397 109.718 12.5819C109.641 12.5242 109.602 12.4607 109.602 12.3929C109.602 12.3279 109.617 12.2645 109.648 12.1995C109.687 12.1143 109.749 12.0206 109.835 11.9152L110.271 11.4288L110.653 10.9901ZM112.681 8.77479L112.564 10.6422H110.966L112.681 8.77479ZM115.769 9.53969L115.865 9.66671C116.177 9.45165 116.471 9.3449 116.747 9.3449C117.167 9.3449 117.379 9.51951 117.379 9.86875C117.379 10.0607 117.304 10.2425 117.154 10.4143C117.005 10.586 116.702 10.7707 116.247 10.9685C115.725 11.1964 115.372 11.3913 115.185 11.5515C114.999 11.7131 114.904 11.9109 114.904 12.1475C114.904 12.39 115.015 12.5863 115.235 12.7334C115.454 12.8821 115.766 12.9557 116.169 12.9557C116.818 12.9557 117.425 12.7017 117.989 12.1952L117.857 12.0883C117.504 12.377 117.163 12.5198 116.829 12.5198C116.585 12.5198 116.396 12.4636 116.261 12.3496C116.124 12.2355 116.056 12.0855 116.056 11.9036C116.056 11.7362 116.124 11.5587 116.261 11.3696C116.396 11.1821 116.793 10.9425 117.452 10.6509C117.849 10.4763 118.116 10.3161 118.254 10.1718C118.392 10.0261 118.462 9.84852 118.462 9.63637C118.462 9.44159 118.374 9.27412 118.198 9.13129C118.021 8.98834 117.75 8.91769 117.383 8.91769C116.829 8.91769 116.29 9.12549 115.769 9.53969ZM119.853 11.7045C119.853 11.5861 119.867 11.4346 119.895 11.2513C120.267 11.2239 120.564 11.1821 120.786 11.1243C121.116 11.0406 121.414 10.9165 121.681 10.7548C121.948 10.5932 122.169 10.3796 122.346 10.114C122.473 9.92069 122.537 9.72011 122.537 9.51371C122.537 9.34194 122.471 9.1991 122.341 9.08655C122.211 8.97399 122.018 8.91769 121.764 8.91769C121.259 8.91769 120.759 9.05762 120.26 9.33625C119.761 9.61622 119.367 9.98567 119.078 10.4489C118.788 10.9107 118.644 11.3725 118.644 11.8358C118.644 12.1316 118.74 12.3914 118.934 12.618C119.128 12.8432 119.479 12.9557 119.985 12.9557C120.385 12.9557 120.75 12.872 121.081 12.7061C121.411 12.5401 121.751 12.2615 122.099 11.869L121.964 11.755C121.681 11.9946 121.433 12.1619 121.22 12.2586C121.006 12.3539 120.794 12.4015 120.581 12.4015C120.359 12.4015 120.184 12.338 120.052 12.2111C119.92 12.0855 119.853 11.9152 119.853 11.7045ZM120.556 10.8819C120.409 10.9453 120.202 10.9958 119.935 11.0319C120.156 10.3421 120.433 9.82401 120.767 9.48053C120.949 9.29144 121.113 9.19772 121.258 9.19772C121.331 9.19772 121.391 9.21926 121.438 9.264C121.484 9.31026 121.509 9.37228 121.509 9.45026C121.509 9.63638 121.456 9.83551 121.354 10.0491C121.251 10.2613 121.129 10.4373 120.988 10.5773C120.846 10.7173 120.702 10.8184 120.556 10.8819ZM127.38 9.03606H126.242L125.723 10.7231H124.482L125.037 8.91769H124.788L123.246 9.17598L123.2 9.33189C123.39 9.34339 123.515 9.36506 123.571 9.3983C123.626 9.42997 123.654 9.48773 123.654 9.5685C123.654 9.66235 123.614 9.84132 123.532 10.1054L122.69 12.8373H123.828L124.415 10.9352H125.66L125.405 11.755C125.309 12.071 125.259 12.2818 125.259 12.3885C125.259 12.5098 125.306 12.6237 125.399 12.7277C125.491 12.8316 125.637 12.8835 125.834 12.8835C126.048 12.8835 126.264 12.8229 126.481 12.7003C126.698 12.5776 126.958 12.2976 127.262 11.8603L127.083 11.755C126.835 12.1302 126.649 12.3178 126.524 12.3178C126.458 12.3178 126.424 12.2832 126.424 12.2153C126.424 12.1649 126.455 12.0407 126.515 11.8444L127.38 9.03606ZM129.635 10.7361L130.217 8.91769H129.944L128.393 9.16732L128.348 9.32758C128.502 9.32758 128.608 9.33764 128.662 9.35496C128.716 9.37373 128.755 9.39969 128.78 9.43148C128.805 9.4646 128.816 9.5022 128.816 9.54834C128.816 9.6609 128.774 9.85143 128.688 10.1184L127.835 12.8373H128.994L129.362 11.6237C129.665 11.0291 130.002 10.521 130.371 10.0982C130.615 9.824 130.792 9.68687 130.903 9.68687C130.925 9.68687 130.945 9.69552 130.965 9.71284C130.984 9.73015 130.995 9.74748 130.995 9.7677C130.995 9.82401 130.972 9.92651 130.927 10.0765L130.076 12.8373H131.226L131.504 11.9657C131.589 11.693 131.675 11.4707 131.76 11.2989C131.847 11.1258 132.002 10.8876 132.227 10.5816C132.451 10.2757 132.623 10.0636 132.743 9.94521C132.862 9.82685 132.951 9.75329 133.01 9.72592C133.049 9.70855 133.087 9.69989 133.128 9.69989C133.148 9.69989 133.17 9.70999 133.191 9.72731C133.212 9.74607 133.222 9.76479 133.222 9.78501C133.222 9.84132 133.188 9.98275 133.118 10.2122L132.605 11.8603C132.529 12.1056 132.491 12.289 132.491 12.4102C132.491 12.5372 132.547 12.6483 132.659 12.7421C132.771 12.8373 132.92 12.8835 133.104 12.8835C133.317 12.8835 133.548 12.7999 133.798 12.6295C134.048 12.4607 134.278 12.1952 134.487 11.8315L134.332 11.7376C134.278 11.8084 134.238 11.8603 134.21 11.8949C134.089 12.0522 133.974 12.1721 133.863 12.2543C133.84 12.2731 133.811 12.2832 133.778 12.2832C133.753 12.2832 133.732 12.2731 133.711 12.2543C133.693 12.2341 133.682 12.2125 133.682 12.1908C133.682 12.123 133.721 11.9715 133.795 11.7376L134.301 10.1603C134.391 9.87311 134.438 9.63928 134.438 9.45891C134.438 9.29865 134.384 9.16878 134.275 9.06779C134.168 8.96819 134.034 8.91769 133.873 8.91769C133.719 8.91769 133.573 8.95522 133.437 9.02739C133.239 9.12983 133.008 9.32322 132.741 9.61179C132.567 9.79803 132.285 10.1718 131.891 10.7361L132.095 10.0549C132.176 9.78792 132.218 9.58443 132.218 9.4459C132.218 9.31457 132.173 9.19329 132.086 9.08218C131.998 8.97253 131.855 8.91769 131.658 8.91769C131.485 8.91769 131.313 8.96098 131.142 9.04895C130.972 9.13704 130.753 9.32177 130.49 9.60755C130.31 9.80088 130.026 10.1776 129.635 10.7361ZM138.621 11.9325L138.485 11.8185C138.281 12.0076 138.067 12.1475 137.84 12.2413C137.615 12.3337 137.406 12.3813 137.212 12.3813C136.99 12.3813 136.799 12.2976 136.637 12.1331C136.478 11.9686 136.397 11.7478 136.397 11.4721C136.397 11.1229 136.476 10.7534 136.634 10.3637C136.791 9.9755 137.019 9.65369 137.316 9.3997C137.541 9.20777 137.78 9.11253 138.034 9.11253C138.131 9.11253 138.21 9.13559 138.27 9.18039C138.317 9.21061 138.339 9.2525 138.339 9.303C138.339 9.36221 138.283 9.43147 138.171 9.5094C138.006 9.62195 137.926 9.75474 137.926 9.90774C137.926 10.0231 137.971 10.1227 138.064 10.2079C138.157 10.2916 138.272 10.3349 138.412 10.3349C138.573 10.3349 138.717 10.2685 138.848 10.1358C138.978 10.003 139.043 9.84278 139.043 9.6537C139.043 9.44445 138.958 9.26982 138.784 9.12983C138.612 8.98834 138.354 8.91769 138.011 8.91769C137.584 8.91769 137.15 9.04896 136.706 9.30876C136.263 9.57002 135.908 9.92354 135.638 10.371C135.368 10.8169 135.233 11.2715 135.233 11.7333C135.233 11.9397 135.282 12.1403 135.383 12.3366C135.482 12.5329 135.638 12.6843 135.849 12.7927C136.06 12.9009 136.302 12.9557 136.574 12.9557C136.98 12.9557 137.373 12.8547 137.752 12.6512C138.038 12.4997 138.326 12.2601 138.621 11.9325ZM141.013 10.7361L141.595 8.91769H141.322L139.771 9.16732L139.726 9.32758C139.88 9.32758 139.986 9.33764 140.04 9.35496C140.094 9.37373 140.133 9.39969 140.158 9.43148C140.183 9.4646 140.194 9.5022 140.194 9.54834C140.194 9.6609 140.152 9.85143 140.066 10.1184L139.213 12.8373H140.372L140.74 11.6237C141.043 11.0291 141.38 10.521 141.749 10.0982C141.993 9.824 142.17 9.68687 142.281 9.68687C142.303 9.68687 142.323 9.69552 142.343 9.71284C142.362 9.73015 142.373 9.74748 142.373 9.7677C142.373 9.82401 142.35 9.92651 142.305 10.0765L141.454 12.8373H142.604L142.882 11.9657C142.967 11.693 143.053 11.4707 143.138 11.2989C143.225 11.1258 143.38 10.8876 143.605 10.5816C143.829 10.2757 144.001 10.0636 144.121 9.94521C144.24 9.82685 144.329 9.75329 144.388 9.72592C144.427 9.70855 144.465 9.69989 144.506 9.69989C144.526 9.69989 144.548 9.70999 144.569 9.72731C144.59 9.74607 144.6 9.76479 144.6 9.78501C144.6 9.84132 144.566 9.98275 144.496 10.2122L143.983 11.8603C143.907 12.1056 143.869 12.289 143.869 12.4102C143.869 12.5372 143.925 12.6483 144.037 12.7421C144.149 12.8373 144.298 12.8835 144.482 12.8835C144.695 12.8835 144.926 12.7999 145.176 12.6295C145.426 12.4607 145.656 12.1952 145.866 11.8315L145.71 11.7376C145.656 11.8084 145.616 11.8603 145.588 11.8949C145.467 12.0522 145.352 12.1721 145.242 12.2543C145.218 12.2731 145.189 12.2832 145.156 12.2832C145.131 12.2832 145.11 12.2731 145.089 12.2543C145.071 12.2341 145.06 12.2125 145.06 12.1908C145.06 12.123 145.099 11.9715 145.173 11.7376L145.679 10.1603C145.769 9.87311 145.816 9.63928 145.816 9.45891C145.816 9.29865 145.762 9.16878 145.653 9.06779C145.546 8.96819 145.412 8.91769 145.251 8.91769C145.097 8.91769 144.951 8.95522 144.815 9.02739C144.618 9.12983 144.386 9.32322 144.119 9.61179C143.945 9.79803 143.663 10.1718 143.269 10.7361L143.473 10.0549C143.554 9.78792 143.596 9.58443 143.596 9.4459C143.596 9.31457 143.551 9.19329 143.464 9.08218C143.376 8.97253 143.233 8.91769 143.036 8.91769C142.863 8.91769 142.691 8.96098 142.52 9.04895C142.35 9.13704 142.131 9.32177 141.868 9.60755C141.688 9.80088 141.404 10.1776 141.013 10.7361ZM149.886 11.6497C149.886 11.1531 149.507 10.8689 148.753 10.7952C149.214 10.6567 149.588 10.4763 149.877 10.2512C150.164 10.0274 150.308 9.79368 150.308 9.54834C150.308 9.36791 150.224 9.21788 150.058 9.09806C149.891 8.97829 149.658 8.91769 149.358 8.91769C148.903 8.91769 148.461 9.04326 148.029 9.29144C147.599 9.54113 147.253 9.90193 146.992 10.3738C146.732 10.8472 146.601 11.3047 146.601 11.7506C146.601 12.0883 146.711 12.3741 146.932 12.6064C147.151 12.8388 147.514 12.9557 148.02 12.9557C148.525 12.9557 148.961 12.8301 149.33 12.5791C149.7 12.3279 149.886 12.0191 149.886 11.6497ZM149.076 10.2411C148.852 10.5572 148.498 10.7519 148.015 10.8241C148.399 9.69698 148.787 9.13414 149.18 9.13414C149.335 9.13414 149.412 9.21928 149.412 9.39105C149.412 9.64219 149.301 9.92506 149.076 10.2411ZM147.697 12.2745C147.697 12.0191 147.775 11.6222 147.93 11.0868C148.121 11.0161 148.273 10.9815 148.385 10.9815C148.624 10.9815 148.743 11.1098 148.743 11.3653C148.743 11.6727 148.667 11.9787 148.517 12.2818C148.365 12.5848 148.199 12.7364 148.015 12.7364C147.804 12.7364 147.697 12.5819 147.697 12.2745ZM154.141 9.07208C153.93 8.96963 153.704 8.91769 153.465 8.91769C153.104 8.91769 152.756 8.997 152.419 9.15727C152.082 9.31596 151.784 9.52381 151.525 9.77786C151.266 10.0333 151.052 10.332 150.884 10.674C150.716 11.0175 150.631 11.384 150.631 11.7766C150.631 12.1056 150.744 12.3857 150.971 12.6137C151.196 12.8418 151.516 12.9557 151.927 12.9557C152.382 12.9557 152.834 12.8243 153.284 12.5603C153.732 12.2961 154.092 11.9368 154.367 11.4807C154.642 11.0233 154.779 10.5673 154.779 10.1097C154.779 9.88746 154.726 9.68402 154.617 9.50074C154.51 9.31892 154.35 9.17458 154.141 9.07208ZM152.879 9.27268C152.984 9.18609 153.118 9.14134 153.279 9.14134C153.378 9.14134 153.467 9.18179 153.541 9.26262C153.617 9.34339 153.656 9.45595 153.656 9.60314C153.656 9.95818 153.594 10.3494 153.47 10.7765C153.346 11.2037 153.186 11.5933 152.992 11.9469C152.798 12.3005 152.635 12.5285 152.501 12.6295C152.41 12.6974 152.306 12.732 152.186 12.732C152.071 12.732 151.972 12.6888 151.887 12.605C151.801 12.5198 151.759 12.4131 151.759 12.2832C151.759 11.7593 151.893 11.1704 152.16 10.5182C152.427 9.86585 152.666 9.45026 152.879 9.27268ZM90.534 18.626H89.3962L88.8778 20.313H87.636L88.1917 18.5076H87.9418L86.4003 18.7659L86.3538 18.9218C86.5448 18.9333 86.6689 18.955 86.7248 18.9882C86.7807 19.0199 86.8087 19.0776 86.8087 19.1585C86.8087 19.2523 86.7683 19.4312 86.686 19.6953L85.8447 22.4273H86.9825L87.5693 20.5252H88.8142L88.5596 21.3449C88.4634 21.6609 88.4137 21.8717 88.4137 21.9785C88.4137 22.0997 88.4603 22.2137 88.5534 22.3176C88.6449 22.4215 88.7908 22.4734 88.988 22.4734C89.2022 22.4734 89.418 22.4128 89.6353 22.2902C89.8526 22.1675 90.1119 21.8876 90.4161 21.4503L90.2375 21.3449C89.9892 21.7201 89.803 21.9078 89.6787 21.9078C89.612 21.9078 89.5779 21.8731 89.5779 21.8053C89.5779 21.7548 89.6089 21.6306 89.6694 21.4344L90.534 18.626ZM92.3113 21.2944C92.3113 21.1761 92.3253 21.0245 92.3532 20.8412C92.7258 20.8139 93.0223 20.772 93.2443 20.7142C93.5749 20.6305 93.873 20.5064 94.1399 20.3447C94.4069 20.1831 94.6273 19.9695 94.8043 19.704C94.9315 19.5106 94.9952 19.31 94.9952 19.1036C94.9952 18.9319 94.93 18.7891 94.7996 18.6765C94.6692 18.5639 94.4767 18.5076 94.2222 18.5076C93.7177 18.5076 93.2178 18.6476 92.7181 18.9261C92.2198 19.2061 91.8255 19.5756 91.5368 20.0388C91.2465 20.5006 91.1021 20.9625 91.1021 21.4257C91.1021 21.7216 91.1983 21.9813 91.3924 22.2079C91.5865 22.4331 91.9373 22.5457 92.4433 22.5457C92.8438 22.5457 93.2085 22.4619 93.5392 22.296C93.8698 22.13 94.2098 21.8515 94.5575 21.4589L94.4225 21.3449C94.1399 21.5845 93.8916 21.7519 93.6789 21.8485C93.4647 21.9438 93.252 21.9915 93.0393 21.9915C92.8173 21.9915 92.642 21.9279 92.51 21.801C92.3781 21.6754 92.3113 21.5051 92.3113 21.2944ZM93.0145 20.4718C92.8671 20.5352 92.6606 20.5858 92.3937 20.6219C92.614 19.9321 92.8919 19.4139 93.2257 19.0704C93.4073 18.8813 93.5718 18.7876 93.7162 18.7876C93.7892 18.7876 93.8497 18.8092 93.8962 18.854C93.9428 18.9002 93.9677 18.9622 93.9677 19.0402C93.9677 19.2263 93.9149 19.4255 93.8124 19.6391C93.7099 19.8512 93.5873 20.0273 93.4461 20.1673C93.3048 20.3073 93.1604 20.4083 93.0145 20.4718ZM96.9867 16.5637L96.9138 16.7282C97.5844 17.1164 97.9709 17.75 98.0734 18.626C97.929 18.548 97.7721 18.5076 97.606 18.5076C97.0318 18.5076 96.4558 18.802 95.8769 19.3908C95.2979 19.981 95.0092 20.619 95.0092 21.3074C95.0092 21.6955 95.1319 22.0002 95.3771 22.2181C95.6223 22.436 95.9482 22.5457 96.355 22.5457C97.0318 22.5457 97.6712 22.2527 98.2766 21.6682C98.8805 21.0837 99.1832 20.3794 99.1832 19.5568C99.1832 18.9002 98.9876 18.2998 98.5964 17.7572C98.2053 17.2145 97.6697 16.8162 96.9867 16.5637ZM96.6189 19.9263C96.9371 19.1325 97.2817 18.7357 97.6511 18.7357C97.9274 18.7357 98.0656 18.9175 98.0656 19.2812C98.0656 19.7242 97.9025 20.3404 97.5781 21.1299C97.2538 21.9179 96.9185 22.3133 96.5738 22.3133C96.2852 22.3133 96.1408 22.1387 96.1408 21.7894C96.1408 21.3406 96.3006 20.72 96.6189 19.9263ZM102.941 21.2396C102.941 20.7431 102.562 20.4588 101.808 20.3852C102.269 20.2467 102.643 20.0662 102.932 19.8411C103.219 19.6174 103.363 19.3836 103.363 19.1383C103.363 18.9579 103.28 18.8078 103.113 18.688C102.946 18.5682 102.713 18.5076 102.413 18.5076C101.959 18.5076 101.516 18.6332 101.085 18.8814C100.655 19.131 100.309 19.4919 100.048 19.9637C99.787 20.4371 99.6565 20.8946 99.6565 21.3406C99.6565 21.6782 99.7668 21.964 99.9872 22.1964C100.206 22.4288 100.569 22.5457 101.075 22.5457C101.58 22.5457 102.016 22.4201 102.385 22.169C102.755 21.9179 102.941 21.609 102.941 21.2396ZM102.131 19.831C101.907 20.1471 101.553 20.3419 101.071 20.414C101.454 19.2869 101.842 18.724 102.235 18.724C102.39 18.724 102.468 18.8092 102.468 18.981C102.468 19.2321 102.356 19.515 102.131 19.831ZM100.752 21.8645C100.752 21.609 100.83 21.2121 100.985 20.6767C101.176 20.606 101.328 20.5714 101.44 20.5714C101.679 20.5714 101.799 20.6998 101.799 20.9552C101.799 21.2626 101.723 21.5686 101.572 21.8717C101.42 22.1748 101.254 22.3262 101.071 22.3262C100.86 22.3262 100.752 22.1718 100.752 21.8645ZM105.173 21.3824L106.057 18.5076H105.783L104.233 18.7573L104.188 18.9175C104.338 18.9175 104.442 18.9276 104.498 18.9449C104.554 18.9637 104.594 18.9897 104.619 19.0214C104.644 19.0546 104.655 19.0907 104.655 19.134C104.655 19.2292 104.613 19.4154 104.528 19.691L104.014 21.3824C103.938 21.6249 103.9 21.8183 103.9 21.9626C103.9 22.1315 103.959 22.2715 104.076 22.3812C104.192 22.4908 104.33 22.5457 104.492 22.5457C104.661 22.5457 104.84 22.4994 105.026 22.4056C105.212 22.3133 105.442 22.1271 105.715 21.8485C105.894 21.6624 106.181 21.303 106.575 20.7706L106.351 21.4849C106.275 21.7187 106.238 21.9121 106.238 22.0636C106.238 22.2079 106.292 22.3234 106.4 22.4128C106.507 22.5009 106.656 22.5457 106.844 22.5457C107.35 22.5457 107.814 22.1921 108.234 21.4849L108.079 21.3824C107.901 21.6306 107.756 21.7952 107.648 21.8774C107.609 21.9121 107.567 21.9279 107.525 21.9279C107.5 21.9279 107.477 21.9164 107.455 21.8919C107.432 21.8688 107.421 21.8457 107.421 21.8226C107.421 21.7894 107.457 21.6538 107.53 21.417L108.402 18.626L107.252 18.6649L106.839 19.958C106.471 20.5872 106.122 21.0693 105.788 21.4041C105.555 21.6349 105.367 21.7505 105.229 21.7505C105.195 21.7505 105.167 21.7389 105.142 21.7173C105.121 21.7028 105.11 21.6826 105.11 21.6581C105.11 21.6076 105.131 21.5152 105.173 21.3824ZM113.192 18.626L112.641 20.414H111.873C111.943 20.1384 111.977 19.8988 111.977 19.6953C111.977 19.3346 111.884 19.0474 111.697 18.8309C111.511 18.6158 111.263 18.5076 110.954 18.5076C110.448 18.5076 109.872 18.841 109.226 19.5063L109.363 19.6073C109.684 19.297 109.97 19.1427 110.221 19.1427C110.398 19.1427 110.549 19.2104 110.674 19.3475C110.8 19.4832 110.864 19.691 110.864 19.971C110.864 20.5887 110.724 21.1414 110.445 21.6321C110.165 22.1228 109.875 22.3681 109.571 22.3681C109.447 22.3681 109.385 22.3248 109.385 22.2368C109.385 22.1863 109.442 22.1112 109.558 22.0131C109.766 21.8327 109.872 21.674 109.872 21.5354C109.872 21.417 109.829 21.3204 109.74 21.2453C109.652 21.1703 109.541 21.1342 109.408 21.1342C109.214 21.1342 109.051 21.2078 108.919 21.355C108.787 21.5036 108.722 21.6782 108.722 21.8818C108.722 22.091 108.799 22.2527 108.956 22.3696C109.111 22.4879 109.304 22.5457 109.53 22.5457C109.967 22.5457 110.398 22.384 110.822 22.0592C111.247 21.736 111.576 21.2583 111.809 20.6305H112.578L112.023 22.4273H113.16L113.714 20.6305H114.484C114.414 20.9091 114.378 21.1544 114.378 21.3665C114.378 21.7072 114.468 21.9885 114.648 22.2122C114.83 22.4345 115.081 22.5457 115.406 22.5457C115.91 22.5457 116.485 22.2137 117.13 21.5484L116.994 21.446C116.672 21.7591 116.385 21.915 116.134 21.915C115.974 21.915 115.826 21.8515 115.693 21.723C115.559 21.5946 115.493 21.3796 115.493 21.0779C115.493 20.4357 115.632 19.8772 115.913 19.4024C116.194 18.9276 116.483 18.6894 116.78 18.6894C116.901 18.6894 116.961 18.7313 116.961 18.8164C116.961 18.8698 116.884 18.9637 116.73 19.0949C116.562 19.2364 116.48 19.3793 116.48 19.5221C116.48 19.6405 116.523 19.7372 116.613 19.8108C116.703 19.883 116.814 19.9204 116.944 19.9204C117.135 19.9204 117.296 19.8469 117.43 19.6997C117.563 19.5539 117.63 19.3779 117.63 19.1715C117.63 18.9579 117.549 18.7934 117.389 18.6793C117.228 18.5653 117.037 18.5076 116.815 18.5076C116.362 18.5076 115.918 18.6851 115.486 19.0387C115.053 19.3922 114.743 19.8512 114.552 20.414H113.777L114.328 18.626H113.192ZM119.221 21.3824L120.104 18.5076H119.831L118.28 18.7573L118.236 18.9175C118.386 18.9175 118.49 18.9276 118.546 18.9449C118.602 18.9637 118.642 18.9897 118.667 19.0214C118.692 19.0546 118.703 19.0907 118.703 19.134C118.703 19.2292 118.661 19.4154 118.575 19.691L118.062 21.3824C117.986 21.6249 117.948 21.8183 117.948 21.9626C117.948 22.1315 118.007 22.2715 118.124 22.3812C118.24 22.4908 118.378 22.5457 118.54 22.5457C118.709 22.5457 118.887 22.4994 119.074 22.4056C119.26 22.3133 119.49 22.1271 119.763 21.8485C119.941 21.6624 120.229 21.303 120.623 20.7706L120.399 21.4849C120.323 21.7187 120.286 21.9121 120.286 22.0636C120.286 22.2079 120.34 22.3234 120.448 22.4128C120.555 22.5009 120.704 22.5457 120.891 22.5457C121.397 22.5457 121.862 22.1921 122.282 21.4849L122.127 21.3824C121.949 21.6306 121.804 21.7952 121.696 21.8774C121.657 21.9121 121.615 21.9279 121.573 21.9279C121.548 21.9279 121.525 21.9164 121.503 21.8919C121.48 21.8688 121.469 21.8457 121.469 21.8226C121.469 21.7894 121.504 21.6538 121.577 21.417L122.45 18.626L121.3 18.6649L120.887 19.958C120.519 20.5872 120.17 21.0693 119.836 21.4041C119.603 21.6349 119.415 21.7505 119.277 21.7505C119.243 21.7505 119.215 21.7389 119.19 21.7173C119.168 21.7028 119.157 21.6826 119.157 21.6581C119.157 21.6076 119.179 21.5152 119.221 21.3824ZM125.166 22.5457L127.462 19.3663L126.807 21.4936C126.731 21.7346 126.694 21.9136 126.694 22.0261C126.694 22.1748 126.745 22.2988 126.849 22.397C126.951 22.4966 127.094 22.5457 127.276 22.5457C127.791 22.5457 128.266 22.1949 128.699 21.4936L128.532 21.3954C128.261 21.7678 128.074 21.9539 127.967 21.9539C127.9 21.9539 127.867 21.9136 127.867 21.8312C127.867 21.7721 127.897 21.6466 127.957 21.4546L128.831 18.626H127.693L125.97 21.0028L125.775 18.5076H125.575L123.993 18.7659L123.943 18.9218C124.142 18.9419 124.268 18.9766 124.32 19.0257C124.372 19.0748 124.396 19.1411 124.396 19.222C124.396 19.2955 124.367 19.4269 124.306 19.616L123.824 21.0909C123.721 21.407 123.642 21.6133 123.586 21.7086C123.529 21.8039 123.468 21.853 123.401 21.853C123.347 21.853 123.279 21.8168 123.196 21.7461C123.094 21.6509 122.985 21.6033 122.874 21.6033C122.712 21.6033 122.588 21.6538 122.498 21.7548C122.409 21.8558 122.364 21.9669 122.364 22.0852C122.364 22.2195 122.414 22.3306 122.515 22.4172C122.614 22.5024 122.748 22.5457 122.914 22.5457C123.139 22.5457 123.342 22.4576 123.524 22.2815C123.706 22.1055 123.884 21.7475 124.061 21.2092L124.729 19.1498L124.992 22.5457H125.166ZM132.926 18.662C132.715 18.5595 132.49 18.5076 132.251 18.5076C131.889 18.5076 131.541 18.587 131.205 18.7472C130.868 18.9059 130.57 19.1137 130.31 19.3678C130.051 19.6232 129.837 19.922 129.669 20.264C129.502 20.6075 129.416 20.974 129.416 21.3665C129.416 21.6955 129.53 21.9756 129.756 22.2036C129.981 22.4317 130.301 22.5457 130.713 22.5457C131.167 22.5457 131.619 22.4143 132.069 22.1502C132.518 21.8861 132.878 21.5267 133.153 21.0707C133.427 20.6132 133.564 20.1572 133.564 19.6997C133.564 19.4774 133.511 19.2739 133.403 19.0907C133.295 18.9088 133.136 18.7645 132.926 18.662ZM131.664 18.8626C131.77 18.776 131.903 18.7313 132.065 18.7313C132.164 18.7313 132.252 18.7717 132.327 18.8525C132.403 18.9333 132.442 19.0459 132.442 19.1931C132.442 19.5481 132.38 19.9393 132.255 20.3664C132.131 20.7936 131.971 21.1833 131.777 21.5368C131.583 21.8904 131.42 22.1185 131.287 22.2195C131.195 22.2873 131.091 22.322 130.972 22.322C130.857 22.322 130.757 22.2787 130.672 22.1949C130.587 22.1098 130.545 22.003 130.545 21.8731C130.545 21.3492 130.678 20.7604 130.945 20.1081C131.212 19.4558 131.451 19.0401 131.664 18.8626ZM137.48 21.5224L137.344 21.4084C137.14 21.5975 136.926 21.7374 136.699 21.8312C136.474 21.9236 136.265 21.9712 136.071 21.9712C135.849 21.9712 135.658 21.8876 135.497 21.723C135.337 21.5585 135.256 21.3377 135.256 21.062C135.256 20.7128 135.335 20.3433 135.493 19.9537C135.65 19.5655 135.878 19.2436 136.175 18.9896C136.4 18.7977 136.639 18.7024 136.894 18.7024C136.99 18.7024 137.069 18.7255 137.13 18.7703C137.176 18.8006 137.198 18.8424 137.198 18.893C137.198 18.9521 137.142 19.0214 137.03 19.0994C136.866 19.2119 136.785 19.3446 136.785 19.4976C136.785 19.6131 136.83 19.7126 136.923 19.7978C137.016 19.8815 137.131 19.9248 137.271 19.9248C137.432 19.9248 137.577 19.8584 137.707 19.7257C137.837 19.5929 137.903 19.4327 137.903 19.2436C137.903 19.0343 137.817 18.8597 137.643 18.7197C137.471 18.5783 137.213 18.5076 136.87 18.5076C136.443 18.5076 136.009 18.6389 135.565 18.8987C135.122 19.16 134.767 19.5134 134.497 19.9609C134.227 20.4069 134.092 20.8614 134.092 21.3232C134.092 21.5296 134.141 21.7302 134.242 21.9265C134.342 22.1228 134.497 22.2743 134.708 22.3826C134.919 22.4908 135.161 22.5457 135.433 22.5457C135.84 22.5457 136.232 22.4446 136.611 22.2411C136.897 22.0896 137.185 21.85 137.48 21.5224ZM139.872 20.326L140.454 18.5076H140.181L138.631 18.7573L138.586 18.9175C138.739 18.9175 138.845 18.9276 138.899 18.9449C138.953 18.9637 138.992 18.9897 139.017 19.0214C139.042 19.0546 139.053 19.0921 139.053 19.1383C139.053 19.2509 139.011 19.4413 138.925 19.7083L138.072 22.4273H139.231L139.599 21.2136C139.902 20.619 140.239 20.111 140.608 19.6882C140.852 19.4139 141.029 19.2768 141.14 19.2768C141.162 19.2768 141.182 19.2855 141.203 19.3028C141.221 19.3201 141.232 19.3374 141.232 19.3576C141.232 19.4139 141.209 19.5164 141.164 19.6664L140.313 22.4273H141.463L141.741 21.5556C141.827 21.2828 141.912 21.0606 141.997 20.8888C142.084 20.7157 142.239 20.4776 142.465 20.1716C142.688 19.8657 142.86 19.6535 142.98 19.5352C143.099 19.4168 143.188 19.3432 143.247 19.3158C143.286 19.2985 143.325 19.2898 143.365 19.2898C143.385 19.2898 143.407 19.3 143.429 19.3173C143.449 19.336 143.46 19.3548 143.46 19.3749C143.46 19.4312 143.425 19.5727 143.356 19.8021L142.842 21.4503C142.766 21.6956 142.728 21.8789 142.728 22.0002C142.728 22.1271 142.784 22.2382 142.896 22.3321C143.008 22.4273 143.157 22.4734 143.342 22.4734C143.554 22.4734 143.786 22.3898 144.035 22.2195C144.285 22.0506 144.515 21.7851 144.725 21.4214L144.569 21.3276C144.515 21.3983 144.475 21.4503 144.447 21.4849C144.326 21.6422 144.211 21.762 144.101 21.8443C144.077 21.863 144.048 21.8731 144.015 21.8731C143.99 21.8731 143.969 21.863 143.949 21.8443C143.93 21.824 143.919 21.8024 143.919 21.7807C143.919 21.7129 143.958 21.5614 144.032 21.3276L144.538 19.7502C144.628 19.463 144.675 19.2292 144.675 19.0488C144.675 18.8886 144.621 18.7587 144.512 18.6577C144.405 18.5581 144.271 18.5076 144.11 18.5076C143.956 18.5076 143.81 18.5452 143.674 18.6173C143.477 18.7197 143.245 18.9131 142.978 19.2018C142.805 19.3879 142.522 19.7617 142.128 20.326L142.333 19.6449C142.413 19.3779 142.455 19.1743 142.455 19.0358C142.455 18.9045 142.41 18.7833 142.323 18.6721C142.235 18.5625 142.092 18.5076 141.895 18.5076C141.723 18.5076 141.55 18.5509 141.38 18.6389C141.209 18.727 140.99 18.9117 140.728 19.1974C140.548 19.3908 140.263 19.7675 139.872 20.326ZM146.815 21.3823L147.699 18.5075H147.425L145.875 18.7572L145.83 18.9174C145.98 18.9174 146.084 18.9275 146.14 18.9449C146.196 18.9636 146.237 18.9896 146.261 19.0213C146.286 19.0545 146.297 19.0907 146.297 19.134C146.297 19.2292 146.255 19.4153 146.17 19.691L145.656 21.3823C145.58 21.6248 145.543 21.8183 145.543 21.9625C145.543 22.1314 145.602 22.2714 145.718 22.3811C145.834 22.4907 145.973 22.5456 146.134 22.5456C146.303 22.5456 146.482 22.4994 146.668 22.4056C146.854 22.3132 147.084 22.1271 147.357 21.8485C147.536 21.6624 147.823 21.303 148.217 20.7705L147.994 21.4849C147.918 21.7186 147.88 21.912 147.88 22.0636C147.88 22.2079 147.935 22.3234 148.042 22.4128C148.149 22.5009 148.298 22.5456 148.486 22.5456C148.992 22.5456 149.456 22.192 149.876 21.4849L149.721 21.3823C149.543 21.6306 149.398 21.7951 149.29 21.8774C149.251 21.912 149.209 21.9279 149.167 21.9279C149.142 21.9279 149.119 21.9164 149.097 21.8918C149.074 21.8687 149.063 21.8457 149.063 21.8225C149.063 21.7893 149.099 21.6537 149.172 21.417L150.044 18.6259L148.894 18.6648L148.481 19.958C148.113 20.5871 147.764 21.0692 147.43 21.404C147.197 21.6349 147.01 21.7504 146.871 21.7504C146.837 21.7504 146.809 21.7388 146.784 21.7172C146.763 21.7028 146.752 21.6826 146.752 21.658C146.752 21.6075 146.773 21.5152 146.815 21.3823Z" fill="#C90015"/>
<path fill-rule="evenodd" clip-rule="evenodd" d="M152.469 26.5207C122.384 26.3797 92.2985 26.2382 62.2133 26.0966L62.0402 27.8833L152.845 26.5207H152.469Z" fill="#E30016" stroke="#E30016" stroke-width="0.216"/>
<path fill-rule="evenodd" clip-rule="evenodd" d="M67.6219 39.1823C76.6662 39.1909 72.9167 46.2619 69.3542 47.4731C65.8892 48.6509 67.2658 40.6833 67.6219 39.1823ZM67.8385 38.249C76.5732 36.8026 78.2356 28.5887 71.8809 32.0723C67.4398 34.5075 67.8385 38.249 67.8385 38.249ZM71.9894 37.6449C87.9034 26.6236 64.9974 27.7516 64.1215 44.7278C63.7124 48.3249 68.5244 49.4782 72.3501 47.0342C76.5174 43.2779 76.5127 38.6358 71.9894 37.6449ZM86.0792 32.69C100.07 27.2027 98.4232 37.3841 86.0699 46.9241C84.681 48.1171 83.3786 48.789 82.5456 49.1224C81.8292 52.7055 81.2449 55.6276 80.4839 59.2168L79.7457 62.8985C78.5314 63.3069 77.684 63.5916 76.4697 64C78.4637 54.4518 80.4579 44.9036 82.4514 35.3561C81.1044 35.9418 80.1006 36.7485 79.219 37.5626C79.0264 37.4617 78.9421 37.4436 78.7491 37.3434C79.8649 36.297 81.0537 35.3321 82.6478 34.4157C82.7056 34.1378 82.7637 33.86 82.8222 33.5818C82.918 32.9835 82.8822 32.6598 82.3892 32.3741C84.5322 31.7681 86.0207 31.0959 86.72 30.3426C86.4176 31.012 86.2099 31.9068 86.0792 32.69ZM82.856 47.6389L85.8175 33.692C93.6211 29.0272 95.7485 40.4851 82.856 47.6389ZM103.484 32.6729C98.7393 33.0543 99.0108 36.3948 99.5496 40.257C100.088 44.1191 102.8 47.0869 105.585 46.8633C112.467 46.311 108.229 32.2912 103.484 32.6729ZM105.644 31.3311C93.698 31.7226 95.1268 48.7857 102.973 48.4065C112.75 47.9339 117.884 30.9295 105.644 31.3311Z" fill="#C90015" stroke="#E30016" stroke-width="0.216"/>
<path fill-rule="evenodd" clip-rule="evenodd" d="M119.512 32.3603C133.503 26.8734 131.856 37.0549 119.503 46.5947C118.202 47.3289 117.822 47.9815 116.027 48.552C115.31 52.1351 114.677 55.298 113.917 58.8873L113.331 62.5174C112.188 62.9016 111.045 63.2863 109.902 63.6706C111.897 54.1224 113.89 44.5745 115.884 35.0264C114.537 35.6121 113.533 36.4187 112.652 37.2332C112.459 37.1324 112.375 37.114 112.182 37.0134C113.298 35.9672 114.486 35.0028 116.081 34.0863C116.138 33.8084 116.196 33.5304 116.254 33.2525C116.351 32.6541 116.315 32.3303 115.822 32.0445C117.965 31.4387 119.453 30.7668 120.153 30.0132C119.85 30.6824 119.643 31.5774 119.512 32.3603ZM116.289 47.3095L119.25 33.3622C127.054 28.6976 129.181 40.1556 116.289 47.3095ZM140.439 32.199C137.733 31.5354 133.995 33.9419 132.64 37.6595C131.285 41.3774 132.113 44.9849 134.94 45.5887C138.473 46.3435 142.257 41.8042 143.027 37.7566C143.823 33.5754 142.703 32.7431 140.439 32.199ZM149.683 30.9462C143.096 33.2843 136.988 27.5235 130.626 38.0844C124.186 49.7689 134.426 52.1981 142.608 41.708C139.304 52.7649 143.639 46.7398 151.921 44.0689C147.7 45.6011 143.687 46.9204 146.074 41.6533C145.623 41.584 149.244 30.9229 149.683 30.9462Z" fill="#C90015" stroke="#E30016" stroke-width="0.216"/>
<path fill-rule="evenodd" clip-rule="evenodd" d="M4.49182 28.6607C4.49182 13.432 18.1153 1.08197 34.9146 1.08197C51.7138 1.08197 65.3373 13.432 65.3373 28.6607H4.49182Z" fill="#FFF8B2" stroke="#FFF8B2" stroke-width="0.216"/>
<path fill-rule="evenodd" clip-rule="evenodd" d="M65.0483 28.6607C65.0483 43.8895 51.5542 56.2395 34.9146 56.2395C18.275 56.2395 4.78088 43.8895 4.78088 28.6607H65.0483Z" fill="#51BDE7" stroke="#51BDE7" stroke-width="0.8504"/>
<path fill-rule="evenodd" clip-rule="evenodd" d="M43.0988 41.8598C43.5258 39.6618 43.8032 37.4907 43.9699 35.4849C39.9144 35.6472 36.024 35.6985 32.3566 35.6674C32.4059 37.7252 32.4896 39.9428 32.62 42.1729C32.6491 42.6714 32.6805 43.17 32.7144 43.6673C36.2863 43.7556 39.6436 43.701 42.7417 43.5469C42.8708 42.985 42.9896 42.4219 43.0988 41.8598ZM32.3351 34.6672C36.03 34.6989 39.9534 34.6469 44.0452 34.481C44.2025 32.1306 44.2078 30.0553 44.1293 28.4991L45.128 28.4488C45.2071 30.0176 45.2032 32.0918 45.0502 34.4382C49.7616 34.227 54.6869 33.8639 59.7362 33.304C60.0146 31.4842 60.1055 29.8343 60.0664 28.4885L61.066 28.4594C61.1048 29.795 61.0213 31.4102 60.7645 33.1874C62.229 33.0178 63.7034 32.8314 65.1854 32.6273L65.3218 33.6179C63.7382 33.8361 62.1633 34.034 60.5997 34.213C60.186 36.5536 59.4744 39.1219 58.359 41.6737C59.7944 41.3737 61.0107 41.0682 61.9863 40.7785L62.271 41.7371C61.1096 42.0821 59.6209 42.4474 57.8395 42.7996C57.7581 42.9669 57.6748 43.1341 57.5897 43.3009C56.4582 45.5194 54.9983 47.6876 53.1397 49.6386C53.7827 49.4161 54.4269 49.1793 55.0716 48.9273L55.4356 49.8587C54.1115 50.3761 52.7901 50.8312 51.4757 51.2292C49.0236 53.3613 45.9945 55.1293 42.2745 56.2633L41.9829 55.3067C44.6745 54.4862 46.9889 53.3217 48.9739 51.9218C45.9586 52.6792 42.9965 53.1492 40.1429 53.3965C39.4588 54.5893 38.6871 55.7002 37.8177 56.6951L37.0647 56.0371C37.7436 55.2601 38.3622 54.4049 38.9251 53.4891C37.1929 53.6026 35.5045 53.6356 33.8728 53.6031C34.0563 54.5619 34.2595 55.4447 34.4843 56.2282L33.523 56.5039C33.2727 55.6312 33.0492 54.6446 32.8498 53.5739C31.1485 53.511 29.5137 53.3782 27.9607 53.1933C28.9104 54.2528 29.9699 55.1842 31.1498 55.946L30.6074 56.7861C29.031 55.7683 27.6662 54.4754 26.4871 52.9992C24.1762 52.6652 22.0713 52.221 20.2282 51.7315C22.2928 53.2157 24.7258 54.4486 27.5848 55.3061L27.2975 56.2639C23.3708 55.0862 20.2137 53.2241 17.692 50.9798C16.5452 50.6014 15.5527 50.216 14.7361 49.8491L15.146 48.937C15.4033 49.0526 15.6789 49.1702 15.9721 49.2889C14.2591 47.43 12.9044 45.3874 11.8467 43.2997C11.719 43.0477 11.5957 42.795 11.4765 42.5419C10.111 42.3007 8.73147 42.0364 7.33941 41.7474L7.54269 40.7683C8.69881 41.0083 9.84617 41.2312 10.9839 41.4378C9.93984 38.9649 9.27939 36.4836 8.90128 34.2156C7.32533 34.0144 5.968 33.8099 4.85486 33.6151L5.02725 32.6301C6.05978 32.8108 7.30664 33.0001 8.74681 33.1875C8.50876 31.4074 8.44581 29.7897 8.50413 28.4522L9.50318 28.4957C9.44444 29.8428 9.51456 31.4948 9.77411 33.3168C12.5291 33.6521 15.8964 33.9734 19.753 34.2193C19.5031 32.0141 19.4175 30.0295 19.4412 28.4664L20.4411 28.4815C20.4174 30.0464 20.5065 32.052 20.7667 34.2816C23.9914 34.4718 27.5366 34.608 31.3347 34.6565C31.2887 32.2402 31.2897 30.0914 31.3162 28.4658L32.3161 28.4821C32.2896 30.1035 32.2888 32.2514 32.3351 34.6672ZM50.9797 50.3341C53.4111 48.1811 55.2432 45.6511 56.6029 43.0331C53.1242 43.6606 48.7006 44.2194 43.5415 44.5062C42.8734 47.2214 41.9569 49.9178 40.7161 52.3389C44.0255 52.0133 47.4763 51.3794 50.9797 50.3341ZM57.1535 41.9142C58.3544 39.3353 59.1182 36.7152 59.5623 34.3292C54.5479 34.8785 49.657 35.235 44.9767 35.4424C44.8084 37.5178 44.5235 39.7696 44.0805 42.0505C43.9874 42.5293 43.8874 43.01 43.7798 43.491C49.1416 43.1805 53.6812 42.5755 57.1535 41.9142ZM32.7862 44.6694C36.2341 44.7522 39.4843 44.703 42.4974 44.5599C41.7937 47.3414 40.8287 50.0595 39.5303 52.4431C37.5201 52.5985 35.5672 52.6425 33.6923 52.5988C33.2927 50.2332 32.9985 47.4912 32.7862 44.6694ZM18.2039 50.0955C20.2367 50.7545 22.7552 51.3896 25.6358 51.8572C23.9898 49.4932 22.7539 46.7619 21.8376 43.981C18.8778 43.6801 15.8224 43.2761 12.6899 42.7508L12.7387 42.8478C14.0494 45.4346 15.8281 47.9434 18.2039 50.0955ZM27.0263 52.0656C28.7971 52.3089 30.6879 52.4858 32.6732 52.5663C32.2776 50.1705 31.989 47.4314 31.7813 44.6416C28.9511 44.5533 25.993 44.3755 22.9283 44.0877C23.9192 46.9839 25.2559 49.7574 27.0263 52.0656ZM31.6217 42.2313C31.6491 42.7 31.6785 43.1697 31.7102 43.6389C28.7989 43.5459 25.7509 43.3575 22.5896 43.0508C22.5506 42.9258 22.5123 42.8006 22.4746 42.6753C21.7193 40.1675 21.2132 37.6292 20.8944 35.2907C24.0943 35.4767 27.6029 35.6095 31.3561 35.6569C31.4055 37.7353 31.4899 39.9766 31.6217 42.2313ZM19.8771 35.2292C20.1999 37.6635 20.7216 40.3174 21.5105 42.942C18.4885 42.6255 15.3669 42.2004 12.1657 41.6472C11.0491 39.16 10.3434 36.6433 9.93784 34.3437C12.7036 34.6743 16.0555 34.9888 19.8771 35.2292Z" fill="white"/>
<path fill-rule="evenodd" clip-rule="evenodd" d="M11.1979 21.6284H11.9403V19.9774H12.2234V21.6284H16.3336V26.3571H19.1611V27.7444H21.04V25.5299H21.9848V23.891H23.7556V25.3154H24.9422V27.5606H27.5076V21.9758H29.3211V21.4243H29.7186V20.2838H33.7661V24.3655H36.143V27.889H37.0187V28.9087H38.428V25.9281H39.9098V24.0286H40.4157V25.9281H41.1746V27.4074H42.6202V25.346H47.1013V21.3937H48.2581V18.3911H48.6195V16.7366H48.9447V18.3911H49.3423V21.3937H50.4623V25.2976H55.5817V23.891H58.8335V21.3227H63.5307V26.7651C64.1087 26.7651 64.6867 26.7651 65.2647 26.7651C65.3236 27.6211 65.3747 28.4772 65.337 29.3334C44.6337 29.3334 25.1966 29.3334 4.49342 29.3334C4.4663 28.6403 4.48304 27.9473 4.52823 27.2542H10.312V22.6804H11.1979V21.6284Z" fill="#1B1918" stroke="#1B1918" stroke-width="0.216"/>
<path d="M34.82 1C51.7847 1 65.5428 13.4349 65.5428 28.7672C65.5428 44.0999 51.7847 56.5347 34.82 56.5347C17.8549 56.5347 4.0968 44.0999 4.0968 28.7672C4.0968 13.4349 17.8549 1 34.82 1Z" stroke="#1B1918" stroke-width="0.5102" stroke-linejoin="round"/>
<path fill-rule="evenodd" clip-rule="evenodd" d="M66.7961 26.1739L57.7021 26.1848C59.3454 20.7526 61.2841 13.9424 63.9016 6.80331C62.756 6.90413 61.6311 7.18306 60.5338 7.60057C48.8033 9.88087 28.9425 5.74127 19.6653 12.879C34.6067 6.24745 44.0919 12.4516 59.6151 7.98572C52.5991 11.1968 46.9225 20.402 43.734 26.1089C37.1784 26.0737 27.5134 26.2424 20.7176 25.968C20.0528 27.0355 20.032 26.8296 19.3668 27.8974L42.7998 27.8285C41.7063 29.902 40.8009 31.2628 40.8009 31.2628C39.4622 33.3414 40.2307 36.1779 29.3084 44.2295C18.8768 51.301 -3.54212 47.8091 6.66015 39.7879C-4.47405 45.3904 2.5927 50.3949 12.6054 50.1653C24.6012 49.8906 34.3944 44.7728 42.5024 31.9272C43.3567 30.5731 44.4635 29.1954 45.2441 27.8212L52.1288 27.8004C49.7886 36.1001 47.652 44.0607 43.4616 48.4869C44.9421 47.5901 47.8956 47.4556 51.4538 47.6336C53.4346 41.1343 55.2862 34.2968 57.2216 27.7854L66.7148 27.8414L66.7961 26.1739ZM46.2009 26.1226L52.5984 26.1572C54.0634 21.0885 55.6329 15.4808 58.2474 10.7012C52.5836 14.0669 49.5468 20.1625 46.2009 26.1226Z" fill="#C90015" stroke="#C90015" stroke-width="0.216"/>
</svg>
