<svg width="156" height="63" viewBox="0 0 156 63" fill="none" xmlns="http://www.w3.org/2000/svg">
<path d="M74.6395 43.6448C76.1374 43.7252 77.2609 44.1742 78.0099 44.9918C78.7588 45.796 79.1333 46.7811 79.1333 47.9471C79.1333 49.5019 78.4881 50.8488 77.1975 51.9881C75.9185 53.1139 74.3514 53.6768 72.4963 53.6768C68.8321 53.6768 67 51.5056 67 47.1631C67 44 67.9852 41.1854 69.9556 38.7193C71.9259 36.2398 74.2477 35 76.921 35C78.2461 35 79.2198 35.2815 79.842 35.8444C80.4757 36.4073 80.7926 37.1176 80.7926 37.9754C80.7926 40.0797 78.7416 41.9695 74.6395 43.6448ZM70.5086 44.1273C73.2626 43.35 75.2617 42.4252 76.5062 41.3529C77.7506 40.2673 78.3728 39.0879 78.3728 37.8146C78.3728 37.3589 78.2288 36.93 77.9407 36.5279C77.6527 36.1124 77.2148 35.9047 76.6272 35.9047C74.1959 35.9047 72.1564 38.6456 70.5086 44.1273ZM70.163 45.3336C69.8288 46.5398 69.6617 47.8265 69.6617 49.1936C69.6617 50.4803 69.9267 51.4118 70.4568 51.9881C70.9984 52.5644 71.6609 52.8526 72.4444 52.8526C73.5276 52.8526 74.4148 52.3433 75.1062 51.3246C75.7975 50.2926 76.1432 49.0797 76.1432 47.6858C76.1432 46.7744 75.8897 46.0104 75.3827 45.3939C74.8757 44.7774 74.2305 44.4691 73.4469 44.4691C72.4675 44.4691 71.3728 44.7573 70.163 45.3336Z" fill="#DC4F00"/>
<path d="M89.1235 35L87.9309 39.624C89.1868 37.9084 90.3045 36.7089 91.284 36.0253C92.2749 35.3418 93.2831 35 94.3086 35C95.3342 35 96.2099 35.4758 96.9358 36.4274C97.6617 37.3656 98.0247 38.592 98.0247 40.1065C98.0247 43.0551 96.9934 46.0573 94.9309 49.1132C92.8683 52.1556 90.4658 53.6768 87.7235 53.6768C87.1473 53.6768 86.6346 53.6031 86.1852 53.4557C85.7473 53.3083 85.2519 53.0469 84.6988 52.6716L83.437 57.8585C83.1835 58.8771 83.0568 59.5406 83.0568 59.8488C83.0568 60.1437 83.1202 60.3917 83.2469 60.5927C83.3852 60.8071 83.6041 60.968 83.9037 61.0752C84.2033 61.1958 84.7967 61.2561 85.684 61.2561L85.5284 62H77.3877L77.5605 61.2561C78.6321 61.2025 79.358 60.9881 79.7383 60.6128C80.107 60.2375 80.4988 59.1988 80.9136 57.4966L85.2864 39.8853C85.5514 38.7729 85.684 38.0827 85.684 37.8146C85.684 37.4527 85.5918 37.1713 85.4074 36.9702C85.2346 36.7692 84.9638 36.6687 84.5951 36.6687C84.2609 36.6687 83.7942 36.7156 83.1951 36.8094V36.0253L89.1235 35ZM85.0963 51.0834C85.8107 52.0752 86.7728 52.5711 87.9827 52.5711C88.5819 52.5711 89.1926 52.3768 89.8148 51.9881C90.437 51.5994 91.042 51.0231 91.6296 50.2591C92.2288 49.4952 92.7646 48.6173 93.237 47.6255C93.7095 46.6203 94.13 45.4408 94.4988 44.0871C94.879 42.7334 95.0691 41.3931 95.0691 40.0663C95.0691 38.994 94.856 38.1765 94.4296 37.6136C94.0148 37.0372 93.5251 36.7491 92.9605 36.7491C91.716 36.7491 90.4831 37.58 89.2617 39.242C88.0519 40.9039 87.1646 42.8474 86.6 45.0722L85.0963 51.0834Z" fill="#DC4F00"/>
<path d="M115.36 41.2926C115.36 43.3031 114.9 45.2934 113.978 47.2636C113.067 49.2338 111.794 50.7952 110.158 51.9479C108.522 53.1005 106.932 53.6768 105.388 53.6768C103.809 53.6768 102.519 53.0938 101.516 51.9278C100.525 50.7483 100.03 49.2271 100.03 47.3641C100.03 45.3939 100.514 43.417 101.481 41.4334C102.461 39.4497 103.763 37.8816 105.388 36.729C107.024 35.5763 108.602 35 110.123 35C111.644 35 112.895 35.583 113.874 36.7491C114.865 37.9151 115.36 39.4296 115.36 41.2926ZM112.491 39.9054C112.491 38.659 112.226 37.7074 111.696 37.0506C111.178 36.3805 110.504 36.0454 109.674 36.0454C107.98 36.0454 106.419 37.4594 104.99 40.2874C103.573 43.102 102.864 45.9032 102.864 48.691C102.864 49.9643 103.141 50.9494 103.694 51.6463C104.247 52.3299 104.944 52.6716 105.785 52.6716C107.41 52.6716 108.931 51.271 110.348 48.4698C111.777 45.6552 112.491 42.8004 112.491 39.9054Z" fill="#DC4F00"/>
<path d="M124.521 35L123.328 39.624C124.584 37.9084 125.702 36.7089 126.681 36.0253C127.672 35.3418 128.681 35 129.706 35C130.732 35 131.607 35.4758 132.333 36.4274C133.059 37.3656 133.422 38.592 133.422 40.1065C133.422 43.0551 132.391 46.0573 130.328 49.1132C128.266 52.1556 125.863 53.6768 123.121 53.6768C122.545 53.6768 122.032 53.6031 121.583 53.4557C121.145 53.3083 120.649 53.0469 120.096 52.6716L118.835 57.8585C118.581 58.8771 118.454 59.5406 118.454 59.8488C118.454 60.1437 118.518 60.3917 118.644 60.5927C118.783 60.8071 119.002 60.968 119.301 61.0752C119.601 61.1958 120.194 61.2561 121.081 61.2561L120.926 62H112.785L112.958 61.2561C114.03 61.2025 114.756 60.9881 115.136 60.6128C115.505 60.2375 115.896 59.1988 116.311 57.4966L120.684 39.8853C120.949 38.7729 121.081 38.0827 121.081 37.8146C121.081 37.4527 120.989 37.1713 120.805 36.9702C120.632 36.7692 120.361 36.6687 119.993 36.6687C119.658 36.6687 119.192 36.7156 118.593 36.8094V36.0253L124.521 35ZM120.494 51.0834C121.208 52.0752 122.17 52.5711 123.38 52.5711C123.979 52.5711 124.59 52.3768 125.212 51.9881C125.835 51.5994 126.44 51.0231 127.027 50.2591C127.626 49.4952 128.162 48.6173 128.635 47.6255C129.107 46.6203 129.528 45.4408 129.896 44.0871C130.277 42.7334 130.467 41.3931 130.467 40.0663C130.467 38.994 130.253 38.1765 129.827 37.6136C129.412 37.0372 128.923 36.7491 128.358 36.7491C127.114 36.7491 125.881 37.58 124.659 39.242C123.449 40.9039 122.562 42.8474 121.998 45.0722L120.494 51.0834Z" fill="#DC4F00"/>
<path d="M151 35L147.63 48.6307L147.249 50.4602C147.215 50.6344 147.198 50.7818 147.198 50.9025C147.198 51.1169 147.255 51.3045 147.37 51.4654C147.463 51.586 147.578 51.6463 147.716 51.6463C147.866 51.6463 148.062 51.5391 148.304 51.3246C148.753 50.936 149.352 50.1318 150.101 48.9121L150.689 49.3946C149.894 50.7885 149.076 51.8541 148.235 52.5912C147.393 53.315 146.616 53.6768 145.901 53.6768C145.406 53.6768 145.031 53.5294 144.778 53.2345C144.536 52.9531 144.415 52.5376 144.415 51.9881C144.415 51.3313 144.542 50.4669 144.795 49.3946L145.158 47.8868C143.649 50.1787 142.26 51.7803 140.993 52.6917C140.082 53.3485 139.189 53.6768 138.314 53.6768C137.472 53.6768 136.746 53.2748 136.136 52.4706C135.525 51.653 135.22 50.5339 135.22 49.1132C135.22 46.9821 135.767 44.7372 136.862 42.3783C137.968 40.006 139.368 38.1095 141.062 36.6888C142.387 35.5629 143.637 35 144.812 35C145.515 35 146.097 35.2144 146.558 35.6433C147.03 36.0722 147.388 36.7826 147.63 37.7744L148.252 35.4825L151 35ZM144.847 36.0454C144.109 36.0454 143.326 36.4475 142.496 37.2517C141.321 38.3909 140.272 40.0797 139.351 42.3179C138.44 44.5562 137.985 46.58 137.985 48.3894C137.985 49.3008 138.181 50.0246 138.573 50.5607C138.965 51.0834 139.414 51.3448 139.921 51.3448C141.177 51.3448 142.542 50.2658 144.017 48.108C145.988 45.2398 146.973 42.2978 146.973 39.2822C146.973 38.143 146.783 37.3187 146.402 36.8094C146.022 36.3001 145.504 36.0454 144.847 36.0454Z" fill="#DC4F00"/>
<path d="M117.849 8.22754L117.346 13.7354C117.32 13.9925 117.307 14.1618 117.307 14.2432C117.307 14.3734 117.331 14.4727 117.38 14.541C117.442 14.6354 117.525 14.7054 117.629 14.751C117.736 14.7965 117.915 14.8193 118.166 14.8193L118.112 15H115.505L115.559 14.8193H115.671C115.882 14.8193 116.055 14.7738 116.188 14.6826C116.283 14.6208 116.356 14.5182 116.408 14.375C116.444 14.2741 116.478 14.0365 116.511 13.6621L116.589 12.8223H114.694L114.021 13.7354C113.868 13.9404 113.771 14.0885 113.732 14.1797C113.693 14.2676 113.674 14.3506 113.674 14.4287C113.674 14.5329 113.716 14.6224 113.801 14.6973C113.885 14.7721 114.025 14.8128 114.221 14.8193L114.167 15H112.209L112.263 14.8193C112.504 14.8096 112.715 14.7298 112.897 14.5801C113.083 14.4271 113.358 14.1032 113.723 13.6084L117.678 8.22754H117.849ZM116.882 9.85352L114.963 12.4658H116.628L116.882 9.85352Z" fill="#DC4F00"/>
<path d="M119.777 11.416L119.631 11.2939C120.171 10.8187 120.741 10.5811 121.34 10.5811C121.773 10.5811 122.1 10.6657 122.321 10.835C122.543 11.0042 122.653 11.2174 122.653 11.4746C122.653 11.6634 122.585 11.8473 122.448 12.0264C122.312 12.2054 121.892 12.4447 121.188 12.7441C120.502 13.0371 120.07 13.2894 119.895 13.501C119.722 13.7126 119.636 13.9062 119.636 14.082C119.636 14.2708 119.711 14.4385 119.86 14.585C120.013 14.7282 120.248 14.7998 120.563 14.7998C121.009 14.7998 121.498 14.585 122.028 14.1553L122.16 14.2822C121.594 14.8389 120.922 15.1172 120.144 15.1172C119.704 15.1172 119.374 15.0342 119.152 14.8682C118.931 14.7021 118.82 14.4906 118.82 14.2334C118.82 13.9925 118.91 13.763 119.089 13.5449C119.268 13.3268 119.725 13.0811 120.461 12.8076C121.044 12.5895 121.426 12.3844 121.608 12.1924C121.791 11.9971 121.882 11.7806 121.882 11.543C121.882 11.3509 121.809 11.2012 121.662 11.0938C121.516 10.9831 121.317 10.9277 121.066 10.9277C120.656 10.9277 120.227 11.0905 119.777 11.416Z" fill="#DC4F00"/>
<path d="M123.908 13.1592C123.885 13.3219 123.874 13.457 123.874 13.5645C123.874 13.8542 123.977 14.1016 124.182 14.3066C124.387 14.5085 124.636 14.6094 124.929 14.6094C125.163 14.6094 125.388 14.5622 125.603 14.4678C125.821 14.3701 126.143 14.1569 126.569 13.8281L126.672 13.9697C125.9 14.7347 125.165 15.1172 124.465 15.1172C123.99 15.1172 123.632 14.9674 123.391 14.668C123.15 14.3685 123.029 14.0381 123.029 13.6768C123.029 13.1917 123.179 12.6953 123.479 12.1875C123.778 11.6797 124.154 11.2858 124.606 11.0059C125.059 10.7227 125.524 10.5811 126.003 10.5811C126.348 10.5811 126.604 10.651 126.77 10.791C126.936 10.931 127.019 11.097 127.019 11.2891C127.019 11.5592 126.911 11.818 126.696 12.0654C126.413 12.3877 125.996 12.6481 125.446 12.8467C125.082 12.9801 124.569 13.0843 123.908 13.1592ZM123.942 12.9199C124.424 12.8646 124.816 12.7702 125.119 12.6367C125.52 12.4577 125.819 12.2445 126.018 11.9971C126.219 11.7464 126.32 11.5088 126.32 11.2842C126.32 11.1475 126.276 11.0368 126.188 10.9521C126.104 10.8675 125.982 10.8252 125.822 10.8252C125.49 10.8252 125.137 11.0026 124.763 11.3574C124.392 11.709 124.118 12.2298 123.942 12.9199Z" fill="#DC4F00"/>
<path d="M127.697 10.8838L129.196 10.5811H129.372L128.791 12.627H130.476L131.032 10.6982H131.784L130.803 14.0674C130.751 14.2529 130.725 14.3717 130.725 14.4238C130.725 14.5052 130.76 14.5459 130.832 14.5459C130.975 14.5459 131.215 14.3311 131.55 13.9014L131.716 13.9893C131.198 14.7412 130.738 15.1172 130.334 15.1172C130.08 15.1172 129.953 14.9658 129.953 14.6631C129.953 14.5133 130.015 14.2236 130.139 13.7939L130.407 12.8711H128.718L128.098 15H127.36L128.308 11.748C128.379 11.5007 128.415 11.3428 128.415 11.2744C128.415 11.0986 128.306 11.0107 128.088 11.0107C128.036 11.0107 127.906 11.0221 127.697 11.0449V10.8838Z" fill="#DC4F00"/>
<path d="M135.983 13.9355C135.645 14.3424 135.303 14.6419 134.958 14.834C134.613 15.0228 134.248 15.1172 133.864 15.1172C133.402 15.1172 133.041 14.987 132.78 14.7266C132.523 14.4661 132.395 14.1162 132.395 13.6768C132.395 13.1787 132.533 12.6888 132.81 12.207C133.09 11.7253 133.464 11.3346 133.933 11.0352C134.405 10.7324 134.867 10.5811 135.319 10.5811C135.674 10.5811 135.939 10.6559 136.115 10.8057C136.291 10.9521 136.379 11.1328 136.379 11.3477C136.379 11.5495 136.317 11.722 136.193 11.8652C136.102 11.9759 135.99 12.0312 135.856 12.0312C135.756 12.0312 135.671 11.9987 135.603 11.9336C135.537 11.8685 135.505 11.7871 135.505 11.6895C135.505 11.6276 135.516 11.5706 135.539 11.5186C135.565 11.4665 135.616 11.4046 135.69 11.333C135.769 11.2581 135.816 11.2044 135.832 11.1719C135.848 11.1393 135.856 11.1051 135.856 11.0693C135.856 11.001 135.826 10.944 135.764 10.8984C135.669 10.8333 135.536 10.8008 135.363 10.8008C135.044 10.8008 134.729 10.9131 134.416 11.1377C134.104 11.3623 133.837 11.6813 133.615 12.0947C133.348 12.596 133.215 13.0973 133.215 13.5986C133.215 13.9307 133.309 14.1943 133.498 14.3896C133.687 14.5817 133.944 14.6777 134.27 14.6777C134.52 14.6777 134.768 14.6159 135.012 14.4922C135.259 14.3652 135.536 14.1374 135.842 13.8086L135.983 13.9355Z" fill="#DC4F00"/>
<path d="M138.732 10.5811L138.098 12.7832C138.381 12.2656 138.622 11.8766 138.82 11.6162C139.13 11.2126 139.431 10.9196 139.724 10.7373C139.896 10.6331 140.077 10.5811 140.266 10.5811C140.428 10.5811 140.563 10.6331 140.671 10.7373C140.778 10.8415 140.832 10.9749 140.832 11.1377C140.832 11.2972 140.795 11.5055 140.72 11.7627L140.373 13.0029C140.904 12.0101 141.407 11.3135 141.882 10.9131C142.146 10.6917 142.406 10.5811 142.663 10.5811C142.813 10.5811 142.935 10.6331 143.029 10.7373C143.127 10.8382 143.176 10.9961 143.176 11.2109C143.176 11.3997 143.146 11.5999 143.088 11.8115L142.551 13.7109C142.434 14.1243 142.375 14.3538 142.375 14.3994C142.375 14.445 142.39 14.484 142.419 14.5166C142.438 14.5394 142.465 14.5508 142.497 14.5508C142.53 14.5508 142.587 14.5199 142.668 14.458C142.854 14.3148 143.028 14.126 143.19 13.8916L143.352 13.9941C143.27 14.1243 143.125 14.3034 142.917 14.5312C142.712 14.7591 142.536 14.9137 142.39 14.9951C142.243 15.0765 142.108 15.1172 141.984 15.1172C141.87 15.1172 141.774 15.0781 141.696 15C141.621 14.9219 141.584 14.8258 141.584 14.7119C141.584 14.5557 141.651 14.2415 141.784 13.7695L142.229 12.2021C142.329 11.8408 142.383 11.6406 142.39 11.6016C142.399 11.5397 142.404 11.4795 142.404 11.4209C142.404 11.3395 142.386 11.276 142.351 11.2305C142.312 11.1849 142.268 11.1621 142.219 11.1621C142.082 11.1621 141.937 11.2321 141.784 11.3721C141.335 11.7855 140.915 12.3649 140.524 13.1104C140.267 13.6019 140.026 14.2318 139.802 15H139.064L139.899 12.0459C139.991 11.7269 140.036 11.5137 140.036 11.4062C140.036 11.3184 140.018 11.2533 139.982 11.2109C139.947 11.1686 139.903 11.1475 139.851 11.1475C139.743 11.1475 139.629 11.1865 139.509 11.2646C139.313 11.3916 139.061 11.6634 138.752 12.0801C138.446 12.4967 138.208 12.8955 138.039 13.2764C137.958 13.4554 137.764 14.0299 137.458 15H136.735L137.639 11.8359L137.756 11.4258C137.779 11.3639 137.79 11.3184 137.79 11.2891C137.79 11.2174 137.757 11.154 137.692 11.0986C137.627 11.04 137.544 11.0107 137.443 11.0107C137.401 11.0107 137.284 11.0303 137.092 11.0693L137.048 10.8887L138.732 10.5811Z" fill="#DC4F00"/>
<path d="M146.257 12.6807C146.68 12.7002 146.997 12.8092 147.209 13.0078C147.421 13.2031 147.526 13.4424 147.526 13.7256C147.526 14.1032 147.344 14.4303 146.979 14.707C146.618 14.9805 146.175 15.1172 145.651 15.1172C144.616 15.1172 144.099 14.5898 144.099 13.5352C144.099 12.7669 144.377 12.0833 144.934 11.4844C145.49 10.8822 146.146 10.5811 146.901 10.5811C147.276 10.5811 147.551 10.6494 147.727 10.7861C147.906 10.9229 147.995 11.0954 147.995 11.3037C147.995 11.8148 147.416 12.2738 146.257 12.6807ZM145.09 12.7979C145.868 12.609 146.433 12.3844 146.784 12.124C147.136 11.8604 147.312 11.5739 147.312 11.2646C147.312 11.154 147.271 11.0498 147.189 10.9521C147.108 10.8512 146.984 10.8008 146.818 10.8008C146.132 10.8008 145.555 11.4665 145.09 12.7979ZM144.992 13.0908C144.898 13.3838 144.851 13.6963 144.851 14.0283C144.851 14.3408 144.925 14.5671 145.075 14.707C145.228 14.847 145.415 14.917 145.637 14.917C145.943 14.917 146.193 14.7933 146.389 14.5459C146.584 14.2952 146.682 14.0007 146.682 13.6621C146.682 13.4408 146.61 13.2552 146.467 13.1055C146.324 12.9557 146.141 12.8809 145.92 12.8809C145.643 12.8809 145.334 12.9508 144.992 13.0908Z" fill="#DC4F00"/>
<path d="M152.624 12.1094C152.624 12.5977 152.494 13.0811 152.233 13.5596C151.976 14.0381 151.617 14.4173 151.154 14.6973C150.692 14.9772 150.243 15.1172 149.807 15.1172C149.361 15.1172 148.996 14.9756 148.713 14.6924C148.433 14.4059 148.293 14.0365 148.293 13.584C148.293 13.1055 148.43 12.6253 148.703 12.1436C148.98 11.6618 149.348 11.2809 149.807 11.001C150.269 10.721 150.715 10.5811 151.145 10.5811C151.574 10.5811 151.927 10.7227 152.204 11.0059C152.484 11.2891 152.624 11.6569 152.624 12.1094ZM151.813 11.7725C151.813 11.4697 151.739 11.2386 151.589 11.0791C151.442 10.9163 151.252 10.835 151.018 10.835C150.539 10.835 150.098 11.1784 149.694 11.8652C149.294 12.5488 149.094 13.2292 149.094 13.9062C149.094 14.2155 149.172 14.4548 149.328 14.624C149.484 14.79 149.681 14.873 149.919 14.873C150.378 14.873 150.808 14.5329 151.208 13.8525C151.612 13.1689 151.813 12.4756 151.813 11.7725Z" fill="#DC4F00"/>
<path d="M87.6191 21.8838L89.1182 21.5811H89.2939L88.7129 23.627H90.3975L90.9541 21.6982H91.7061L90.7246 25.0674C90.6725 25.2529 90.6465 25.3717 90.6465 25.4238C90.6465 25.5052 90.6823 25.5459 90.7539 25.5459C90.8971 25.5459 91.1364 25.3311 91.4717 24.9014L91.6377 24.9893C91.1201 25.7412 90.6595 26.1172 90.2559 26.1172C90.002 26.1172 89.875 25.9658 89.875 25.6631C89.875 25.5133 89.9368 25.2236 90.0605 24.7939L90.3291 23.8711H88.6396L88.0195 26H87.2822L88.2295 22.748C88.3011 22.5007 88.3369 22.3428 88.3369 22.2744C88.3369 22.0986 88.2279 22.0107 88.0098 22.0107C87.9577 22.0107 87.8275 22.0221 87.6191 22.0449V21.8838Z" fill="#DC4F00"/>
<path d="M93.2344 24.1592C93.2116 24.3219 93.2002 24.457 93.2002 24.5645C93.2002 24.8542 93.3027 25.1016 93.5078 25.3066C93.7129 25.5085 93.9619 25.6094 94.2549 25.6094C94.4893 25.6094 94.7139 25.5622 94.9287 25.4678C95.1468 25.3701 95.4691 25.1569 95.8955 24.8281L95.998 24.9697C95.2266 25.7347 94.4909 26.1172 93.791 26.1172C93.3158 26.1172 92.9577 25.9674 92.7168 25.668C92.4759 25.3685 92.3555 25.0381 92.3555 24.6768C92.3555 24.1917 92.5052 23.6953 92.8047 23.1875C93.1042 22.6797 93.4801 22.2858 93.9326 22.0059C94.3851 21.7227 94.8506 21.5811 95.3291 21.5811C95.6742 21.5811 95.9297 21.651 96.0957 21.791C96.2617 21.931 96.3447 22.097 96.3447 22.2891C96.3447 22.5592 96.2373 22.818 96.0225 23.0654C95.7393 23.3877 95.3226 23.6481 94.7725 23.8467C94.4079 23.9801 93.8952 24.0843 93.2344 24.1592ZM93.2686 23.9199C93.7503 23.8646 94.1426 23.7702 94.4453 23.6367C94.8457 23.4577 95.1452 23.2445 95.3438 22.9971C95.5456 22.7464 95.6465 22.5088 95.6465 22.2842C95.6465 22.1475 95.6025 22.0368 95.5146 21.9521C95.43 21.8675 95.3079 21.8252 95.1484 21.8252C94.8164 21.8252 94.4632 22.0026 94.0889 22.3574C93.7178 22.709 93.4443 23.2298 93.2686 23.9199Z" fill="#DC4F00"/>
<path d="M98.3662 19.2422L98.4639 19.0566C99.2158 19.304 99.8213 19.7565 100.28 20.4141C100.739 21.0716 100.969 21.8073 100.969 22.6211C100.969 23.5781 100.676 24.4001 100.09 25.0869C99.5072 25.7738 98.8171 26.1172 98.0195 26.1172C97.5703 26.1172 97.209 25.9707 96.9355 25.6777C96.6654 25.3848 96.5303 25.012 96.5303 24.5596C96.5303 23.8044 96.833 23.1191 97.4385 22.5039C98.0472 21.8887 98.6527 21.5811 99.2549 21.5811C99.5934 21.5811 99.8913 21.7048 100.148 21.9521C100.083 20.5622 99.4893 19.6589 98.3662 19.2422ZM99.2451 21.8398C98.7731 21.8398 98.3353 22.18 97.9316 22.8604C97.528 23.5374 97.3262 24.208 97.3262 24.8721C97.3262 25.1976 97.4043 25.4466 97.5605 25.6191C97.7168 25.7917 97.9268 25.8779 98.1904 25.8779C98.6169 25.8779 99.0319 25.541 99.4355 24.8672C99.8424 24.1934 100.046 23.513 100.046 22.8262C100.046 22.1686 99.779 21.8398 99.2451 21.8398Z" fill="#DC4F00"/>
<path d="M103.757 23.6807C104.18 23.7002 104.497 23.8092 104.709 24.0078C104.921 24.2031 105.026 24.4424 105.026 24.7256C105.026 25.1032 104.844 25.4303 104.479 25.707C104.118 25.9805 103.675 26.1172 103.151 26.1172C102.116 26.1172 101.599 25.5898 101.599 24.5352C101.599 23.7669 101.877 23.0833 102.434 22.4844C102.99 21.8822 103.646 21.5811 104.401 21.5811C104.776 21.5811 105.051 21.6494 105.227 21.7861C105.406 21.9229 105.495 22.0954 105.495 22.3037C105.495 22.8148 104.916 23.2738 103.757 23.6807ZM102.59 23.7979C103.368 23.609 103.933 23.3844 104.284 23.124C104.636 22.8604 104.812 22.5739 104.812 22.2646C104.812 22.154 104.771 22.0498 104.689 21.9521C104.608 21.8512 104.484 21.8008 104.318 21.8008C103.632 21.8008 103.055 22.4665 102.59 23.7979ZM102.492 24.0908C102.398 24.3838 102.351 24.6963 102.351 25.0283C102.351 25.3408 102.425 25.5671 102.575 25.707C102.728 25.847 102.915 25.917 103.137 25.917C103.443 25.917 103.693 25.7933 103.889 25.5459C104.084 25.2952 104.182 25.0007 104.182 24.6621C104.182 24.4408 104.11 24.2552 103.967 24.1055C103.824 23.9557 103.641 23.8809 103.42 23.8809C103.143 23.8809 102.834 23.9508 102.492 24.0908Z" fill="#DC4F00"/>
<path d="M110.344 21.6982L109.494 24.6084C109.367 25.0413 109.304 25.3148 109.304 25.4287C109.304 25.4873 109.313 25.5312 109.333 25.5605C109.356 25.5866 109.385 25.5996 109.421 25.5996C109.476 25.5996 109.536 25.5752 109.602 25.5264C109.67 25.4743 109.839 25.2725 110.109 24.9209L110.256 25.0332C109.999 25.4401 109.735 25.7396 109.465 25.9316C109.286 26.0553 109.113 26.1172 108.947 26.1172C108.82 26.1172 108.721 26.0814 108.649 26.0098C108.578 25.9382 108.542 25.8454 108.542 25.7314C108.542 25.6208 108.563 25.4743 108.605 25.292C108.658 25.0511 108.806 24.527 109.05 23.7197C108.496 24.6279 108.033 25.2546 107.658 25.5996C107.287 25.9447 106.942 26.1172 106.623 26.1172C106.473 26.1172 106.346 26.0651 106.242 25.9609C106.138 25.8568 106.086 25.7249 106.086 25.5654C106.086 25.3213 106.158 24.9469 106.301 24.4424L106.726 22.9336C106.83 22.5723 106.882 22.3477 106.882 22.2598C106.882 22.2207 106.867 22.1882 106.838 22.1621C106.812 22.1328 106.783 22.1182 106.75 22.1182C106.682 22.1182 106.613 22.1426 106.545 22.1914C106.477 22.2402 106.322 22.4209 106.081 22.7334L105.93 22.626C106.174 22.2484 106.433 21.9701 106.706 21.791C106.914 21.651 107.106 21.5811 107.282 21.5811C107.403 21.5811 107.5 21.6201 107.575 21.6982C107.653 21.7731 107.692 21.8708 107.692 21.9912C107.692 22.167 107.627 22.4811 107.497 22.9336L107.038 24.5107C106.911 24.9404 106.848 25.2122 106.848 25.3262C106.848 25.388 106.867 25.4385 106.906 25.4775C106.949 25.5133 107.004 25.5312 107.072 25.5312C107.18 25.5312 107.32 25.4775 107.492 25.3701C107.665 25.2627 107.894 25.0251 108.181 24.6572C108.47 24.2861 108.708 23.9395 108.894 23.6172C109.082 23.2917 109.283 22.7757 109.494 22.0693L109.602 21.6982H110.344Z" fill="#DC4F00"/>
<path d="M115.5 21.6982H116.237L115.661 23.7246H116.418C116.584 23.1647 116.908 22.6683 117.39 22.2354C117.871 21.7992 118.376 21.5811 118.903 21.5811C119.209 21.5811 119.45 21.6576 119.626 21.8105C119.805 21.9635 119.895 22.1686 119.895 22.4258C119.895 22.5951 119.847 22.7334 119.753 22.8408C119.659 22.945 119.541 22.9971 119.401 22.9971C119.154 22.9971 119.03 22.8717 119.03 22.6211C119.03 22.5234 119.074 22.4128 119.162 22.2891C119.221 22.2077 119.25 22.1393 119.25 22.084C119.25 21.8919 119.126 21.7959 118.879 21.7959C118.446 21.7959 118.033 22.11 117.639 22.7383C117.248 23.3665 117.053 23.9622 117.053 24.5254C117.053 24.8965 117.137 25.1846 117.307 25.3896C117.476 25.5947 117.686 25.6973 117.937 25.6973C118.402 25.6973 118.841 25.432 119.255 24.9014L119.406 24.9746C118.85 25.7363 118.243 26.1172 117.585 26.1172C117.159 26.1172 116.83 25.9723 116.599 25.6826C116.368 25.3896 116.252 25.0218 116.252 24.5791C116.252 24.3838 116.28 24.1803 116.335 23.9688H115.593L115.012 26H114.284L114.86 23.9688H114.113C113.859 24.6784 113.501 25.2139 113.039 25.5752C112.577 25.9365 112.093 26.1172 111.589 26.1172C111.28 26.1172 111.042 26.0407 110.876 25.8877C110.713 25.7314 110.632 25.5378 110.632 25.3066C110.632 25.1211 110.684 24.9746 110.788 24.8672C110.896 24.7565 111.016 24.7012 111.149 24.7012C111.263 24.7012 111.351 24.737 111.413 24.8086C111.478 24.8802 111.511 24.9583 111.511 25.043C111.511 25.1309 111.464 25.2285 111.369 25.3359C111.285 25.4303 111.242 25.5231 111.242 25.6143C111.242 25.6989 111.276 25.7721 111.345 25.834C111.413 25.8926 111.496 25.9219 111.594 25.9219C112.033 25.9219 112.455 25.6273 112.858 25.0381C113.265 24.4489 113.469 23.8158 113.469 23.1387C113.469 22.7741 113.382 22.4941 113.21 22.2988C113.041 22.1035 112.842 22.0059 112.614 22.0059C112.146 22.0059 111.691 22.2728 111.252 22.8066L111.12 22.7139C111.621 21.9587 112.24 21.5811 112.976 21.5811C113.379 21.5811 113.695 21.7161 113.923 21.9863C114.154 22.2565 114.27 22.613 114.27 23.0557C114.27 23.2705 114.243 23.4935 114.191 23.7246H114.924L115.5 21.6982Z" fill="#DC4F00"/>
<path d="M124.65 21.6982L123.801 24.6084C123.674 25.0413 123.61 25.3148 123.61 25.4287C123.61 25.4873 123.62 25.5312 123.64 25.5605C123.662 25.5866 123.692 25.5996 123.728 25.5996C123.783 25.5996 123.843 25.5752 123.908 25.5264C123.977 25.4743 124.146 25.2725 124.416 24.9209L124.562 25.0332C124.305 25.4401 124.042 25.7396 123.771 25.9316C123.592 26.0553 123.42 26.1172 123.254 26.1172C123.127 26.1172 123.028 26.0814 122.956 26.0098C122.884 25.9382 122.849 25.8454 122.849 25.7314C122.849 25.6208 122.87 25.4743 122.912 25.292C122.964 25.0511 123.112 24.527 123.356 23.7197C122.803 24.6279 122.339 25.2546 121.965 25.5996C121.594 25.9447 121.249 26.1172 120.93 26.1172C120.78 26.1172 120.653 26.0651 120.549 25.9609C120.445 25.8568 120.393 25.7249 120.393 25.5654C120.393 25.3213 120.464 24.9469 120.607 24.4424L121.032 22.9336C121.136 22.5723 121.188 22.3477 121.188 22.2598C121.188 22.2207 121.174 22.1882 121.145 22.1621C121.118 22.1328 121.089 22.1182 121.057 22.1182C120.988 22.1182 120.92 22.1426 120.852 22.1914C120.783 22.2402 120.629 22.4209 120.388 22.7334L120.236 22.626C120.48 22.2484 120.739 21.9701 121.013 21.791C121.221 21.651 121.413 21.5811 121.589 21.5811C121.709 21.5811 121.807 21.6201 121.882 21.6982C121.96 21.7731 121.999 21.8708 121.999 21.9912C121.999 22.167 121.934 22.4811 121.804 22.9336L121.345 24.5107C121.218 24.9404 121.154 25.2122 121.154 25.3262C121.154 25.388 121.174 25.4385 121.213 25.4775C121.255 25.5133 121.311 25.5312 121.379 25.5312C121.486 25.5312 121.626 25.4775 121.799 25.3701C121.971 25.2627 122.201 25.0251 122.487 24.6572C122.777 24.2861 123.015 23.9395 123.2 23.6172C123.389 23.2917 123.589 22.7757 123.801 22.0693L123.908 21.6982H124.65Z" fill="#DC4F00"/>
<path d="M126.032 21.8838L127.531 21.5811H127.736L127.932 25.1504L130.212 21.6982H131.008L130.104 24.8965C130.01 25.2253 129.963 25.4092 129.963 25.4482C129.963 25.5524 130.01 25.6045 130.104 25.6045C130.261 25.6045 130.49 25.388 130.793 24.9551L130.935 25.0527C130.749 25.3522 130.52 25.6045 130.246 25.8096C129.976 26.0146 129.758 26.1172 129.592 26.1172C129.322 26.1172 129.187 25.9642 129.187 25.6582C129.187 25.5215 129.239 25.2676 129.343 24.8965L130.104 22.2207L127.531 26.1172H127.312L127.033 22.04C126.434 24.0778 126.009 25.2676 125.759 25.6094C125.508 25.9479 125.235 26.1172 124.938 26.1172C124.642 26.1172 124.494 25.9951 124.494 25.751C124.494 25.6436 124.533 25.5524 124.611 25.4775C124.686 25.3994 124.776 25.3604 124.88 25.3604C124.971 25.3604 125.083 25.4059 125.217 25.4971C125.279 25.5426 125.332 25.5654 125.378 25.5654C125.456 25.5654 125.562 25.4613 125.695 25.2529C125.832 25.0446 126.037 24.5156 126.311 23.666C126.587 22.8132 126.726 22.3249 126.726 22.2012C126.726 22.0514 126.62 21.9766 126.408 21.9766C126.294 21.9766 126.145 21.9977 125.959 22.04L126.032 21.8838Z" fill="#DC4F00"/>
<path d="M135.954 23.1094C135.954 23.5977 135.824 24.0811 135.563 24.5596C135.306 25.0381 134.947 25.4173 134.484 25.6973C134.022 25.9772 133.573 26.1172 133.137 26.1172C132.691 26.1172 132.326 25.9756 132.043 25.6924C131.763 25.4059 131.623 25.0365 131.623 24.584C131.623 24.1055 131.76 23.6253 132.033 23.1436C132.31 22.6618 132.678 22.2809 133.137 22.001C133.599 21.721 134.045 21.5811 134.475 21.5811C134.904 21.5811 135.257 21.7227 135.534 22.0059C135.814 22.2891 135.954 22.6569 135.954 23.1094ZM135.144 22.7725C135.144 22.4697 135.069 22.2386 134.919 22.0791C134.772 21.9163 134.582 21.835 134.348 21.835C133.869 21.835 133.428 22.1784 133.024 22.8652C132.624 23.5488 132.424 24.2292 132.424 24.9062C132.424 25.2155 132.502 25.4548 132.658 25.624C132.814 25.79 133.011 25.873 133.249 25.873C133.708 25.873 134.138 25.5329 134.538 24.8525C134.942 24.1689 135.144 23.4756 135.144 22.7725Z" fill="#DC4F00"/>
<path d="M140.192 24.9355C139.854 25.3424 139.512 25.6419 139.167 25.834C138.822 26.0228 138.457 26.1172 138.073 26.1172C137.611 26.1172 137.25 25.987 136.989 25.7266C136.732 25.4661 136.604 25.1162 136.604 24.6768C136.604 24.1787 136.742 23.6888 137.019 23.207C137.299 22.7253 137.673 22.3346 138.142 22.0352C138.614 21.7324 139.076 21.5811 139.528 21.5811C139.883 21.5811 140.148 21.6559 140.324 21.8057C140.5 21.9521 140.588 22.1328 140.588 22.3477C140.588 22.5495 140.526 22.722 140.402 22.8652C140.311 22.9759 140.199 23.0312 140.065 23.0312C139.965 23.0312 139.88 22.9987 139.812 22.9336C139.746 22.8685 139.714 22.7871 139.714 22.6895C139.714 22.6276 139.725 22.5706 139.748 22.5186C139.774 22.4665 139.825 22.4046 139.899 22.333C139.978 22.2581 140.025 22.2044 140.041 22.1719C140.057 22.1393 140.065 22.1051 140.065 22.0693C140.065 22.001 140.035 21.944 139.973 21.8984C139.878 21.8333 139.745 21.8008 139.572 21.8008C139.253 21.8008 138.938 21.9131 138.625 22.1377C138.312 22.3623 138.046 22.6813 137.824 23.0947C137.557 23.596 137.424 24.0973 137.424 24.5986C137.424 24.9307 137.518 25.1943 137.707 25.3896C137.896 25.5817 138.153 25.6777 138.479 25.6777C138.729 25.6777 138.977 25.6159 139.221 25.4922C139.468 25.3652 139.745 25.1374 140.051 24.8086L140.192 24.9355Z" fill="#DC4F00"/>
<path d="M142.941 21.5811L142.307 23.7832C142.59 23.2656 142.831 22.8766 143.029 22.6162C143.339 22.2126 143.64 21.9196 143.933 21.7373C144.105 21.6331 144.286 21.5811 144.475 21.5811C144.637 21.5811 144.772 21.6331 144.88 21.7373C144.987 21.8415 145.041 21.9749 145.041 22.1377C145.041 22.2972 145.004 22.5055 144.929 22.7627L144.582 24.0029C145.113 23.0101 145.616 22.3135 146.091 21.9131C146.354 21.6917 146.615 21.5811 146.872 21.5811C147.022 21.5811 147.144 21.6331 147.238 21.7373C147.336 21.8382 147.385 21.9961 147.385 22.2109C147.385 22.3997 147.355 22.5999 147.297 22.8115L146.76 24.7109C146.643 25.1243 146.584 25.3538 146.584 25.3994C146.584 25.445 146.599 25.484 146.628 25.5166C146.647 25.5394 146.674 25.5508 146.706 25.5508C146.739 25.5508 146.796 25.5199 146.877 25.458C147.062 25.3148 147.237 25.126 147.399 24.8916L147.561 24.9941C147.479 25.1243 147.334 25.3034 147.126 25.5312C146.921 25.7591 146.745 25.9137 146.599 25.9951C146.452 26.0765 146.317 26.1172 146.193 26.1172C146.079 26.1172 145.983 26.0781 145.905 26C145.83 25.9219 145.793 25.8258 145.793 25.7119C145.793 25.5557 145.86 25.2415 145.993 24.7695L146.438 23.2021C146.538 22.8408 146.592 22.6406 146.599 22.6016C146.608 22.5397 146.613 22.4795 146.613 22.4209C146.613 22.3395 146.595 22.276 146.56 22.2305C146.521 22.1849 146.477 22.1621 146.428 22.1621C146.291 22.1621 146.146 22.2321 145.993 22.3721C145.544 22.7855 145.124 23.3649 144.733 24.1104C144.476 24.6019 144.235 25.2318 144.011 26H143.273L144.108 23.0459C144.2 22.7269 144.245 22.5137 144.245 22.4062C144.245 22.3184 144.227 22.2533 144.191 22.2109C144.156 22.1686 144.112 22.1475 144.06 22.1475C143.952 22.1475 143.838 22.1865 143.718 22.2646C143.522 22.3916 143.27 22.6634 142.961 23.0801C142.655 23.4967 142.417 23.8955 142.248 24.2764C142.167 24.4554 141.973 25.0299 141.667 26H140.944L141.848 22.8359L141.965 22.4258C141.988 22.3639 141.999 22.3184 141.999 22.2891C141.999 22.2174 141.966 22.154 141.901 22.0986C141.836 22.04 141.753 22.0107 141.652 22.0107C141.61 22.0107 141.493 22.0303 141.301 22.0693L141.257 21.8887L142.941 21.5811Z" fill="#DC4F00"/>
<path d="M152.707 21.6982L151.857 24.6084C151.73 25.0413 151.667 25.3148 151.667 25.4287C151.667 25.4873 151.677 25.5312 151.696 25.5605C151.719 25.5866 151.748 25.5996 151.784 25.5996C151.84 25.5996 151.9 25.5752 151.965 25.5264C152.033 25.4743 152.202 25.2725 152.473 24.9209L152.619 25.0332C152.362 25.4401 152.098 25.7396 151.828 25.9316C151.649 26.0553 151.477 26.1172 151.311 26.1172C151.184 26.1172 151.084 26.0814 151.013 26.0098C150.941 25.9382 150.905 25.8454 150.905 25.7314C150.905 25.6208 150.926 25.4743 150.969 25.292C151.021 25.0511 151.169 24.527 151.413 23.7197C150.86 24.6279 150.396 25.2546 150.021 25.5996C149.65 25.9447 149.305 26.1172 148.986 26.1172C148.837 26.1172 148.71 26.0651 148.605 25.9609C148.501 25.8568 148.449 25.7249 148.449 25.5654C148.449 25.3213 148.521 24.9469 148.664 24.4424L149.089 22.9336C149.193 22.5723 149.245 22.3477 149.245 22.2598C149.245 22.2207 149.23 22.1882 149.201 22.1621C149.175 22.1328 149.146 22.1182 149.113 22.1182C149.045 22.1182 148.977 22.1426 148.908 22.1914C148.84 22.2402 148.685 22.4209 148.444 22.7334L148.293 22.626C148.537 22.2484 148.796 21.9701 149.069 21.791C149.278 21.651 149.47 21.5811 149.646 21.5811C149.766 21.5811 149.864 21.6201 149.938 21.6982C150.017 21.7731 150.056 21.8708 150.056 21.9912C150.056 22.167 149.991 22.4811 149.86 22.9336L149.401 24.5107C149.274 24.9404 149.211 25.2122 149.211 25.3262C149.211 25.388 149.23 25.4385 149.27 25.4775C149.312 25.5133 149.367 25.5312 149.436 25.5312C149.543 25.5312 149.683 25.4775 149.855 25.3701C150.028 25.2627 150.257 25.0251 150.544 24.6572C150.834 24.2861 151.071 23.9395 151.257 23.6172C151.446 23.2917 151.646 22.7757 151.857 22.0693L151.965 21.6982H152.707Z" fill="#DC4F00"/>
<path d="M67 31.5H5C6.6 56.7 27 62.6667 37 62.5C60.6 60.5 66.8333 41 67 31.5Z" fill="white"/>
<path d="M62 33.5C61.6667 40.3333 57.5 55.8 45.5 61" stroke="#FFD238" stroke-width="0.5"/>
<path d="M11 33.5C11.3333 40.3333 15.5 55.8 27.5 61" stroke="#FFD238" stroke-width="0.5"/>
<path d="M46.5 33.5C46 41.5 46.5 52 39.5 62" stroke="#FFD238" stroke-width="0.5"/>
<path d="M26 33.5C26.5 41.5 26 52 33 62" stroke="#FFD238" stroke-width="0.5"/>
<path d="M8.5 45.5C17.8333 47.6667 42 50.7 64 45.5" stroke="#FFD238" stroke-width="0.5"/>
<path d="M22 57.5C25.6667 57 36.2 56.3 51 57.5" stroke="#FFD238" stroke-width="0.5"/>
<path d="M6 36.5C15.1667 38.1667 40.2 40.5 67 36.5" stroke="#FFD238" stroke-width="0.5"/>
<rect x="60" y="25" width="5" height="6" fill="#C4C4C4"/>
<path d="M31 25C31 24.4477 31.4477 24 32 24H36V31H31V25Z" fill="#C4C4C4"/>
<rect x="6" y="31" width="61" height="3" fill="#C4C4C4"/>
<rect x="29" y="26" width="2" height="5" fill="#C4C4C4"/>
<rect x="36" y="29" width="2" height="2" fill="#C4C4C4"/>
<rect x="41" y="28" width="2" height="3" fill="#C4C4C4"/>
<rect x="23" y="28" width="2" height="3" fill="#C4C4C4"/>
<rect x="25" y="30" width="1" height="1" fill="#C4C4C4"/>
<rect x="22" y="29" width="1" height="2" fill="#C4C4C4"/>
<rect x="12" y="26" width="6" height="5" fill="#C4C4C4"/>
<path d="M12 26C12 24.8954 12.8954 24 14 24V26H12Z" fill="#C4C4C4"/>
<rect x="11" y="27" width="1" height="4" fill="#C4C4C4"/>
<path d="M48 29C48 27.3431 49.3431 26 51 26H52V31H48V29Z" fill="#C4C4C4"/>
<circle cx="36.5" cy="31.5" r="31" stroke="white"/>
<circle cx="36.5" cy="31.5" r="31" stroke="#FFD238"/>
<path fill-rule="evenodd" clip-rule="evenodd" d="M58 32.5898L52 54.0898C49.8333 53.9231 45.1 53.7898 43.5 54.5898C41.5 55.5898 47 48.5898 47 48.5898C48 46.4231 50.6 40.1898 53 32.5898H46C41.5 40.5898 29.6 56.4898 18 56.0898C13 56.5898 0 55.0899 0 52.0899C0 50.7565 1.5 47.1898 5.5 45.5898C4.33333 46.4231 2.5 49.0899 2.5 51.0899C2.5 52.5899 3.5 54.0898 18 54.0898C23.6667 53.4231 36.5 48.1898 42.5 32.5898H19C19.1667 31.9231 20 30.4898 22 30.0898H44C46.3333 25.4231 52.2 15.3898 57 12.5898C45 12.0898 21 12.0898 21 16.0898C20.8494 15.1861 22.1142 13.0659 27.9675 11.4851C29.3088 11.1229 30.6992 10.9873 32.0884 10.962L57.5 10.5C59.188 9.65599 60.3774 9.51705 62.6313 9.25374C63.0479 9.20508 63.5008 9.15217 64 9.08977C65.6154 8.88779 65.5 9.08977 65.5 9.08977L59 30.0898L156 30.5899L58 32.5898ZM58.5 14.5899C57 14.9232 52.5 18.4899 46.5 30.0899H53.5C54.1667 26.4232 56.1 18.1899 58.5 14.5899Z" fill="#DC4F00"/>
</svg>
