<svg width="139" height="56" viewBox="0 0 139 56" fill="none" xmlns="http://www.w3.org/2000/svg">
<path d="M66.3463 38.7954C67.6778 38.8669 68.6765 39.266 69.3422 39.9927C70.008 40.7075 70.3409 41.5832 70.3409 42.6196C70.3409 44.0016 69.7673 45.1989 68.6201 46.2116C67.4832 47.2124 66.0903 47.7127 64.4413 47.7127C61.1842 47.7127 59.5557 45.7827 59.5557 41.9227C59.5557 39.1111 60.4314 36.6092 62.1828 34.4171C63.9343 32.2131 65.9981 31.1111 68.3743 31.1111C69.5522 31.1111 70.4177 31.3613 70.9708 31.8616C71.5341 32.362 71.8157 32.9934 71.8157 33.7559C71.8157 35.6263 69.9926 37.3062 66.3463 38.7954ZM62.6745 39.2243C65.1224 38.5333 66.8994 37.7112 68.0056 36.7581C69.1118 35.7931 69.6649 34.7447 69.6649 33.6129C69.6649 33.2079 69.5368 32.8266 69.2808 32.4692C69.0247 32.0999 68.6355 31.9153 68.1131 31.9153C65.952 31.9153 64.1391 34.3516 62.6745 39.2243ZM62.3672 40.2965C62.0702 41.3687 61.9216 42.5124 61.9216 43.7276C61.9216 44.8713 62.1572 45.6993 62.6284 46.2116C63.1098 46.7239 63.6987 46.98 64.3952 46.98C65.358 46.98 66.1466 46.5273 66.7612 45.6219C67.3757 44.7045 67.683 43.6263 67.683 42.3873C67.683 41.5772 67.4576 40.8981 67.007 40.3501C66.5563 39.8021 65.9827 39.5281 65.2863 39.5281C64.4157 39.5281 63.4426 39.7842 62.3672 40.2965Z" fill="#C92122"/>
<path d="M79.221 31.1111L78.1609 35.2213C79.2773 33.6963 80.2708 32.6301 81.1414 32.0225C82.0222 31.4149 82.9184 31.1111 83.83 31.1111C84.7416 31.1111 85.52 31.534 86.1653 32.3799C86.8105 33.2138 87.1332 34.3039 87.1332 35.6502C87.1332 38.2712 86.2165 40.9398 84.3831 43.6561C82.5497 46.3605 80.4142 47.7127 77.9765 47.7127C77.4644 47.7127 77.0086 47.6472 76.6092 47.5161C76.22 47.3851 75.7795 47.1528 75.2879 46.8192L74.1664 51.4298C73.941 52.3352 73.8284 52.9249 73.8284 53.1989C73.8284 53.461 73.8847 53.6814 73.9974 53.8602C74.1203 54.0508 74.3149 54.1937 74.5812 54.289C74.8475 54.3963 75.375 54.4499 76.1636 54.4499L76.0254 55.1111H68.7891L68.9428 54.4499C69.8953 54.4022 70.5406 54.2116 70.8786 53.878C71.2063 53.5444 71.5546 52.6211 71.9233 51.1081L75.8103 35.4536C76.0458 34.4648 76.1636 33.8512 76.1636 33.6129C76.1636 33.2913 76.0817 33.0411 75.9178 32.8624C75.7642 32.6837 75.5235 32.5943 75.1957 32.5943C74.8987 32.5943 74.4839 32.636 73.9513 32.7194V32.0225L79.221 31.1111ZM75.6413 45.4074C76.2763 46.289 77.1315 46.7298 78.207 46.7298C78.7396 46.7298 79.2824 46.5571 79.8355 46.2116C80.3886 45.8661 80.9263 45.3538 81.4487 44.6747C81.9813 43.9957 82.4575 43.2153 82.8775 42.3337C83.2974 41.4402 83.6713 40.3918 83.999 39.1885C84.337 37.9852 84.506 36.7939 84.506 35.6144C84.506 34.6613 84.3165 33.9346 83.9376 33.4342C83.5688 32.922 83.1335 32.6658 82.6317 32.6658C81.5255 32.6658 80.4296 33.4045 79.3439 34.8817C78.2684 36.359 77.4798 38.0865 76.9779 40.0642L75.6413 45.4074Z" fill="#C92122"/>
<path d="M102.543 36.7045C102.543 38.4916 102.133 40.2607 101.314 42.0121C100.505 43.7634 99.3728 45.1513 97.9184 46.1759C96.4639 47.2004 95.0505 47.7127 93.678 47.7127C92.2748 47.7127 91.1277 47.1945 90.2366 46.158C89.3558 45.1096 88.9153 43.7574 88.9153 42.1014C88.9153 40.3501 89.3455 38.5928 90.2059 36.8296C91.0765 35.0664 92.2339 33.6725 93.678 32.6479C95.1324 31.6234 96.5356 31.1111 97.8876 31.1111C99.2396 31.1111 100.351 31.6293 101.222 32.6658C102.102 33.7023 102.543 35.0485 102.543 36.7045ZM99.9924 35.4715C99.9924 34.3635 99.7569 33.5176 99.2857 32.9339C98.8248 32.3382 98.2256 32.0403 97.4882 32.0403C95.9826 32.0403 94.5947 33.2972 93.3247 35.811C92.0649 38.3129 91.435 40.8028 91.435 43.2809C91.435 44.4126 91.6808 45.2883 92.1724 45.9078C92.664 46.5154 93.2837 46.8192 94.0314 46.8192C95.4756 46.8192 96.8275 45.5742 98.0874 43.0843C99.3574 40.5824 99.9924 38.0448 99.9924 35.4715Z" fill="#C92122"/>
<path d="M110.685 31.1111L109.625 35.2213C110.742 33.6963 111.735 32.6301 112.606 32.0225C113.487 31.4149 114.383 31.1111 115.294 31.1111C116.206 31.1111 116.984 31.534 117.63 32.3799C118.275 33.2138 118.598 34.3039 118.598 35.6502C118.598 38.2712 117.681 40.9398 115.848 43.6561C114.014 46.3605 111.879 47.7127 109.441 47.7127C108.929 47.7127 108.473 47.6472 108.074 47.5161C107.684 47.3851 107.244 47.1528 106.752 46.8192L105.631 51.4298C105.406 52.3352 105.293 52.9249 105.293 53.1989C105.293 53.461 105.349 53.6814 105.462 53.8602C105.585 54.0508 105.779 54.1937 106.046 54.289C106.312 54.3963 106.839 54.4499 107.628 54.4499L107.49 55.1111H100.254L100.407 54.4499C101.36 54.4022 102.005 54.2116 102.343 53.878C102.671 53.5444 103.019 52.6211 103.388 51.1081L107.275 35.4536C107.51 34.4648 107.628 33.8512 107.628 33.6129C107.628 33.2913 107.546 33.0411 107.382 32.8624C107.229 32.6837 106.988 32.5943 106.66 32.5943C106.363 32.5943 105.948 32.636 105.416 32.7194V32.0225L110.685 31.1111ZM107.106 45.4074C107.741 46.289 108.596 46.7298 109.671 46.7298C110.204 46.7298 110.747 46.5571 111.3 46.2116C111.853 45.8661 112.391 45.3538 112.913 44.6747C113.446 43.9957 113.922 43.2153 114.342 42.3337C114.762 41.4402 115.136 40.3918 115.463 39.1885C115.801 37.9852 115.97 36.7939 115.97 35.6144C115.97 34.6613 115.781 33.9346 115.402 33.4342C115.033 32.922 114.598 32.6658 114.096 32.6658C112.99 32.6658 111.894 33.4045 110.808 34.8817C109.733 36.359 108.944 38.0865 108.442 40.0642L107.106 45.4074Z" fill="#C92122"/>
<path d="M134.222 31.1111L131.226 43.2272L130.888 44.8535C130.858 45.0083 130.842 45.1394 130.842 45.2466C130.842 45.4372 130.894 45.604 130.996 45.747C131.078 45.8542 131.18 45.9078 131.303 45.9078C131.436 45.9078 131.611 45.8125 131.826 45.6219C132.225 45.2764 132.758 44.5616 133.423 43.4774L133.946 43.9063C133.239 45.1453 132.512 46.0925 131.764 46.7477C131.016 47.3911 130.325 47.7127 129.69 47.7127C129.25 47.7127 128.917 47.5817 128.691 47.3196C128.476 47.0694 128.369 46.7001 128.369 46.2116C128.369 45.6278 128.482 44.8594 128.707 43.9063L129.029 42.566C127.688 44.6033 126.454 46.0269 125.327 46.8371C124.518 47.4208 123.724 47.7127 122.946 47.7127C122.198 47.7127 121.553 47.3553 121.01 46.6405C120.467 45.9138 120.195 44.919 120.195 43.6561C120.195 41.7619 120.682 39.7663 121.655 37.6695C122.638 35.5608 123.883 33.875 125.388 32.6122C126.566 31.6115 127.677 31.1111 128.722 31.1111C129.347 31.1111 129.864 31.3017 130.274 31.6829C130.694 32.0642 131.011 32.6956 131.226 33.5772L131.78 31.54L134.222 31.1111ZM128.753 32.0403C128.097 32.0403 127.401 32.3978 126.663 33.1126C125.619 34.1252 124.687 35.6263 123.867 37.6159C123.058 39.6055 122.654 41.4045 122.654 43.0128C122.654 43.8229 122.828 44.4663 123.176 44.9428C123.524 45.4074 123.924 45.6398 124.374 45.6398C125.491 45.6398 126.704 44.6807 128.015 42.7626C129.767 40.2131 130.643 37.5981 130.643 34.9175C130.643 33.9048 130.474 33.1721 130.136 32.7194C129.798 32.2667 129.337 32.0403 128.753 32.0403Z" fill="#C92122"/>
<path d="M104.754 7.31335L104.307 12.2092C104.284 12.4378 104.273 12.5882 104.273 12.6606C104.273 12.7763 104.294 12.8646 104.338 12.9253C104.393 13.0092 104.466 13.0715 104.559 13.112C104.655 13.1525 104.814 13.1727 105.036 13.1727L104.989 13.3333H102.671L102.719 13.1727H102.819C103.007 13.1727 103.16 13.1322 103.279 13.0512C103.363 12.9962 103.428 12.9051 103.474 12.7778C103.506 12.6881 103.536 12.4768 103.565 12.1441L103.635 11.3976H101.951L101.352 12.2092C101.216 12.3915 101.13 12.5231 101.096 12.6042C101.061 12.6823 101.043 12.7561 101.043 12.8255C101.043 12.9181 101.081 12.9977 101.156 13.0642C101.232 13.1308 101.356 13.1669 101.53 13.1727L101.482 13.3333H99.7413L99.7891 13.1727C100.003 13.164 100.191 13.0932 100.353 12.9601C100.518 12.8241 100.763 12.5362 101.087 12.0963L104.602 7.31335H104.754ZM103.895 8.75867L102.189 11.0807H103.669L103.895 8.75867Z" fill="#C92122"/>
<path d="M106.469 10.1476L106.339 10.039C106.819 9.6166 107.325 9.40537 107.858 9.40537C108.243 9.40537 108.533 9.4806 108.73 9.63106C108.927 9.78153 109.025 9.97105 109.025 10.1996C109.025 10.3675 108.964 10.5309 108.843 10.6901C108.721 10.8492 108.348 11.0619 107.723 11.3281C107.113 11.5885 106.729 11.8128 106.573 12.0009C106.42 12.1889 106.343 12.3611 106.343 12.5173C106.343 12.6852 106.409 12.8342 106.543 12.9644C106.679 13.0917 106.887 13.1554 107.168 13.1554C107.564 13.1554 107.998 12.9644 108.47 12.5825L108.587 12.6953C108.083 13.1901 107.486 13.4375 106.794 13.4375C106.404 13.4375 106.11 13.3637 105.913 13.2161C105.716 13.0686 105.618 12.8805 105.618 12.6519C105.618 12.4378 105.698 12.2338 105.857 12.0399C106.016 11.8461 106.422 11.6276 107.076 11.3845C107.594 11.1907 107.934 11.0084 108.096 10.8377C108.258 10.664 108.339 10.4716 108.339 10.2604C108.339 10.0897 108.274 9.95658 108.144 9.8611C108.014 9.76272 107.837 9.71353 107.615 9.71353C107.25 9.71353 106.868 9.8582 106.469 10.1476Z" fill="#C92122"/>
<path d="M110.141 11.697C110.12 11.8417 110.11 11.9618 110.11 12.0573C110.11 12.3148 110.201 12.5347 110.384 12.717C110.566 12.8964 110.787 12.9861 111.048 12.9861C111.256 12.9861 111.456 12.9441 111.647 12.8602C111.841 12.7734 112.127 12.5839 112.506 12.2917L112.597 12.4175C111.911 13.0975 111.258 13.4375 110.635 13.4375C110.213 13.4375 109.895 13.3044 109.681 13.0382C109.466 12.772 109.359 12.4783 109.359 12.1571C109.359 11.726 109.493 11.2847 109.759 10.8333C110.025 10.3819 110.359 10.0318 110.761 9.78297C111.164 9.53124 111.577 9.40537 112.003 9.40537C112.309 9.40537 112.536 9.46758 112.684 9.592C112.832 9.71642 112.905 9.86399 112.905 10.0347C112.905 10.2749 112.81 10.5049 112.619 10.7248C112.367 11.0113 111.997 11.2428 111.508 11.4193C111.184 11.5379 110.728 11.6305 110.141 11.697ZM110.171 11.4844C110.599 11.4352 110.948 11.3513 111.217 11.2326C111.573 11.0735 111.839 10.884 112.016 10.664C112.195 10.4412 112.285 10.23 112.285 10.0304C112.285 9.90884 112.246 9.81046 112.168 9.73523C112.092 9.66 111.984 9.62238 111.842 9.62238C111.547 9.62238 111.233 9.78008 110.9 10.0955C110.57 10.408 110.327 10.8709 110.171 11.4844Z" fill="#C92122"/>
<path d="M113.509 9.67447L114.841 9.40537H114.997L114.481 11.2239H115.978L116.473 9.50954H117.142L116.269 12.5043C116.223 12.6693 116.2 12.7749 116.2 12.8212C116.2 12.8935 116.232 12.9297 116.295 12.9297C116.422 12.9297 116.635 12.7387 116.933 12.3568L117.081 12.4349C116.621 13.1033 116.211 13.4375 115.852 13.4375C115.627 13.4375 115.514 13.3029 115.514 13.0338C115.514 12.9007 115.569 12.6432 115.679 12.2613L115.918 11.441H114.416L113.865 13.3333H113.209L114.051 10.4427C114.115 10.2228 114.147 10.0825 114.147 10.0217C114.147 9.86544 114.05 9.78731 113.856 9.78731C113.81 9.78731 113.694 9.79744 113.509 9.81769V9.67447Z" fill="#C92122"/>
<path d="M120.874 12.3871C120.573 12.7488 120.269 13.015 119.963 13.1858C119.656 13.3536 119.332 13.4375 118.99 13.4375C118.58 13.4375 118.258 13.3217 118.027 13.0903C117.798 12.8588 117.684 12.5477 117.684 12.1571C117.684 11.7144 117.807 11.2789 118.053 10.8507C118.302 10.4224 118.635 10.0752 119.051 9.80901C119.471 9.53992 119.882 9.40537 120.284 9.40537C120.599 9.40537 120.835 9.47192 120.991 9.60502C121.148 9.73523 121.226 9.89582 121.226 10.0868C121.226 10.2662 121.171 10.4195 121.061 10.5469C120.98 10.6452 120.88 10.6944 120.761 10.6944C120.672 10.6944 120.596 10.6655 120.536 10.6076C120.478 10.5498 120.449 10.4774 120.449 10.3906C120.449 10.3356 120.459 10.285 120.479 10.2387C120.502 10.1924 120.547 10.1374 120.614 10.0738C120.683 10.0072 120.725 9.95948 120.74 9.93054C120.754 9.90161 120.761 9.87122 120.761 9.8394C120.761 9.77863 120.734 9.728 120.679 9.68749C120.595 9.62962 120.476 9.60068 120.323 9.60068C120.039 9.60068 119.759 9.70051 119.481 9.90016C119.203 10.0998 118.966 10.3834 118.769 10.7509C118.532 11.1965 118.413 11.6421 118.413 12.0877C118.413 12.3828 118.497 12.6172 118.665 12.7908C118.833 12.9615 119.061 13.0469 119.351 13.0469C119.574 13.0469 119.793 12.9919 120.01 12.8819C120.23 12.7691 120.476 12.5665 120.748 12.2743L120.874 12.3871Z" fill="#C92122"/>
<path d="M123.318 9.40537L122.753 11.3628C123.005 10.9028 123.219 10.557 123.396 10.3255C123.671 9.96671 123.938 9.70629 124.199 9.54426C124.352 9.45166 124.513 9.40537 124.681 9.40537C124.825 9.40537 124.945 9.45166 125.041 9.54426C125.136 9.63685 125.184 9.75548 125.184 9.90016C125.184 10.0419 125.151 10.2271 125.084 10.4557L124.776 11.5581C125.248 10.6756 125.695 10.0564 126.117 9.70051C126.352 9.50375 126.583 9.40537 126.812 9.40537C126.945 9.40537 127.053 9.45166 127.137 9.54426C127.224 9.63396 127.267 9.77429 127.267 9.96526C127.267 10.1331 127.241 10.311 127.189 10.4991L126.712 12.1875C126.608 12.555 126.556 12.759 126.556 12.7995C126.556 12.84 126.569 12.8747 126.595 12.9036C126.612 12.9239 126.635 12.934 126.664 12.934C126.693 12.934 126.744 12.9065 126.816 12.8515C126.981 12.7242 127.136 12.5564 127.28 12.3481L127.424 12.4392C127.351 12.555 127.223 12.7141 127.037 12.9167C126.855 13.1192 126.699 13.2566 126.569 13.329C126.438 13.4013 126.318 13.4375 126.208 13.4375C126.107 13.4375 126.022 13.4028 125.952 13.3333C125.886 13.2639 125.852 13.1785 125.852 13.0772C125.852 12.9384 125.912 12.6591 126.03 12.2396L126.425 10.8463C126.515 10.5252 126.563 10.3472 126.569 10.3125C126.577 10.2575 126.582 10.204 126.582 10.1519C126.582 10.0796 126.566 10.0231 126.534 9.98263C126.499 9.94212 126.46 9.92186 126.417 9.92186C126.295 9.92186 126.166 9.98407 126.03 10.1085C125.631 10.476 125.258 10.991 124.911 11.6536C124.682 12.0906 124.468 12.6504 124.268 13.3333H123.613L124.355 10.7075C124.436 10.4239 124.477 10.2344 124.477 10.1389C124.477 10.0608 124.461 10.0029 124.429 9.96526C124.397 9.92765 124.358 9.90884 124.312 9.90884C124.216 9.90884 124.115 9.94356 124.008 10.013C123.834 10.1259 123.61 10.3675 123.335 10.7378C123.063 11.1082 122.852 11.4627 122.701 11.8012C122.629 11.9603 122.457 12.4711 122.185 13.3333H121.543L122.346 10.5208L122.45 10.1562C122.47 10.1013 122.48 10.0608 122.48 10.0347C122.48 9.97105 122.451 9.91463 122.393 9.86544C122.335 9.81335 122.262 9.78731 122.172 9.78731C122.134 9.78731 122.03 9.80467 121.859 9.8394L121.82 9.67881L123.318 9.40537Z" fill="#C92122"/>
<path d="M130.006 11.2717C130.382 11.289 130.664 11.386 130.852 11.5625C131.041 11.7361 131.135 11.9488 131.135 12.2005C131.135 12.5362 130.973 12.827 130.648 13.0729C130.327 13.316 129.934 13.4375 129.468 13.4375C128.548 13.4375 128.088 12.9687 128.088 12.0312C128.088 11.3484 128.335 10.7407 128.83 10.2083C129.325 9.67302 129.908 9.40537 130.579 9.40537C130.912 9.40537 131.156 9.46613 131.313 9.58766C131.472 9.70919 131.551 9.86254 131.551 10.0477C131.551 10.502 131.036 10.91 130.006 11.2717ZM128.969 11.3759C129.66 11.208 130.162 11.0084 130.475 10.7769C130.787 10.5425 130.944 10.2879 130.944 10.013C130.944 9.91463 130.907 9.82204 130.835 9.73523C130.763 9.64553 130.653 9.60068 130.505 9.60068C129.895 9.60068 129.383 10.1924 128.969 11.3759ZM128.882 11.6363C128.798 11.8967 128.756 12.1745 128.756 12.4696C128.756 12.7474 128.823 12.9485 128.956 13.0729C129.092 13.1973 129.258 13.2595 129.455 13.2595C129.727 13.2595 129.95 13.1496 130.123 12.9297C130.297 12.7069 130.384 12.445 130.384 12.1441C130.384 11.9473 130.32 11.7824 130.193 11.6493C130.065 11.5162 129.903 11.4496 129.707 11.4496C129.461 11.4496 129.186 11.5118 128.882 11.6363Z" fill="#C92122"/>
<path d="M135.666 10.7639C135.666 11.1979 135.55 11.6276 135.319 12.0529C135.09 12.4783 134.77 12.8154 134.359 13.0642C133.949 13.3131 133.549 13.4375 133.161 13.4375C132.765 13.4375 132.441 13.3116 132.189 13.0599C131.94 12.8053 131.816 12.4768 131.816 12.0746C131.816 11.6493 131.938 11.2225 132.181 10.7943C132.427 10.366 132.753 10.0275 133.161 9.77863C133.572 9.52979 133.969 9.40537 134.351 9.40537C134.733 9.40537 135.047 9.53124 135.293 9.78297C135.541 10.0347 135.666 10.3617 135.666 10.7639ZM134.945 10.4644C134.945 10.1953 134.879 9.98986 134.746 9.84808C134.615 9.7034 134.446 9.63106 134.238 9.63106C133.813 9.63106 133.42 9.93633 133.062 10.5469C132.706 11.1545 132.528 11.7592 132.528 12.3611C132.528 12.636 132.597 12.8487 132.736 12.9991C132.875 13.1467 133.05 13.2205 133.261 13.2205C133.669 13.2205 134.051 12.9181 134.407 12.3134C134.766 11.7057 134.945 11.0894 134.945 10.4644Z" fill="#C92122"/>
<path d="M77.8837 19.4522L79.2162 19.1831H79.3724L78.8559 21.0017H80.3533L80.8481 19.2873H81.5165L80.6441 22.2821C80.5978 22.447 80.5747 22.5526 80.5747 22.5989C80.5747 22.6713 80.6065 22.7075 80.6702 22.7075C80.7975 22.7075 81.0102 22.5165 81.3082 22.1345L81.4558 22.2127C80.9957 22.8811 80.5863 23.2153 80.2275 23.2153C80.0018 23.2153 79.8889 23.0807 79.8889 22.8116C79.8889 22.6785 79.9439 22.421 80.0538 22.039L80.2926 21.2187H78.7908L78.2396 23.1111H77.5842L78.4262 20.2205C78.4899 20.0006 78.5217 19.8602 78.5217 19.7995C78.5217 19.6432 78.4248 19.5651 78.2309 19.5651C78.1846 19.5651 78.0689 19.5752 77.8837 19.5955V19.4522Z" fill="#C92122"/>
<path d="M82.875 21.4748C82.8548 21.6195 82.8446 21.7396 82.8446 21.8351C82.8446 22.0926 82.9358 22.3125 83.1181 22.4948C83.3004 22.6742 83.5217 22.7639 83.7821 22.7639C83.9905 22.7639 84.1901 22.7219 84.3811 22.638C84.575 22.5512 84.8614 22.3617 85.2405 22.0694L85.3316 22.1953C84.6459 22.8753 83.9919 23.2153 83.3698 23.2153C82.9474 23.2153 82.6291 23.0822 82.415 22.816C82.2008 22.5498 82.0938 22.2561 82.0938 21.9349C82.0938 21.5037 82.2269 21.0625 82.4931 20.6111C82.7593 20.1597 83.0935 19.8096 83.4957 19.5608C83.8979 19.309 84.3117 19.1831 84.737 19.1831C85.0437 19.1831 85.2709 19.2454 85.4184 19.3698C85.566 19.4942 85.6398 19.6418 85.6398 19.8125C85.6398 20.0526 85.5443 20.2827 85.3533 20.5026C85.1016 20.789 84.7312 21.0205 84.2422 21.197C83.9181 21.3157 83.4624 21.4083 82.875 21.4748ZM82.9054 21.2621C83.3336 21.2129 83.6823 21.129 83.9514 21.0104C84.3073 20.8513 84.5735 20.6617 84.75 20.4418C84.9294 20.219 85.0191 20.0078 85.0191 19.8081C85.0191 19.6866 84.9801 19.5882 84.9019 19.513C84.8267 19.4378 84.7182 19.4002 84.5764 19.4002C84.2813 19.4002 83.9673 19.5579 83.6346 19.8733C83.3047 20.1858 83.0617 20.6487 82.9054 21.2621Z" fill="#C92122"/>
<path d="M87.4367 17.1042L87.5235 16.9392C88.1919 17.1591 88.7301 17.5613 89.138 18.1458C89.546 18.7303 89.75 19.3842 89.75 20.1076C89.75 20.9583 89.4896 21.6889 88.9688 22.2995C88.4508 22.91 87.8374 23.2153 87.1285 23.2153C86.7292 23.2153 86.408 23.0851 86.165 22.8246C85.9248 22.5642 85.8047 22.2329 85.8047 21.8307C85.8047 21.1594 86.0738 20.5503 86.612 20.0035C87.1531 19.4566 87.6913 19.1831 88.2266 19.1831C88.5275 19.1831 88.7923 19.2931 89.0209 19.513C88.963 18.2775 88.4349 17.4745 87.4367 17.1042ZM88.2179 19.4132C87.7983 19.4132 87.4092 19.7156 87.0504 20.3203C86.6916 20.9222 86.5122 21.5182 86.5122 22.1085C86.5122 22.3978 86.5816 22.6192 86.7205 22.7726C86.8594 22.9259 87.046 23.0026 87.2804 23.0026C87.6595 23.0026 88.0284 22.7031 88.3872 22.1042C88.7489 21.5052 88.9297 20.9004 88.9297 20.2899C88.9297 19.7054 88.6924 19.4132 88.2179 19.4132Z" fill="#C92122"/>
<path d="M92.2283 21.0495C92.6045 21.0668 92.8866 21.1638 93.0747 21.3403C93.2628 21.5139 93.3568 21.7265 93.3568 21.9783C93.3568 22.3139 93.1948 22.6047 92.8707 22.8507C92.5495 23.0937 92.156 23.2153 91.6901 23.2153C90.77 23.2153 90.3099 22.7465 90.3099 21.809C90.3099 21.1261 90.5573 20.5185 91.0521 19.9861C91.5469 19.4508 92.1299 19.1831 92.8012 19.1831C93.134 19.1831 93.3785 19.2439 93.5347 19.3654C93.6939 19.487 93.7735 19.6403 93.7735 19.8255C93.7735 20.2798 93.2584 20.6878 92.2283 21.0495ZM91.191 21.1536C91.8826 20.9858 92.3846 20.7862 92.6971 20.5547C93.0096 20.3203 93.1658 20.0657 93.1658 19.7908C93.1658 19.6924 93.1297 19.5998 93.0573 19.513C92.985 19.4233 92.875 19.3785 92.7275 19.3785C92.1169 19.3785 91.6048 19.9702 91.191 21.1536ZM91.1042 21.414C91.0203 21.6745 90.9783 21.9522 90.9783 22.2474C90.9783 22.5252 91.0449 22.7263 91.178 22.8507C91.314 22.9751 91.4804 23.0373 91.6771 23.0373C91.9491 23.0373 92.1719 22.9274 92.3455 22.7075C92.5191 22.4847 92.6059 22.2228 92.6059 21.9219C92.6059 21.7251 92.5423 21.5602 92.415 21.4271C92.2876 21.294 92.1256 21.2274 91.9288 21.2274C91.6829 21.2274 91.408 21.2896 91.1042 21.414Z" fill="#C92122"/>
<path d="M98.0834 19.2873L97.3282 21.8741C97.2153 22.259 97.1589 22.502 97.1589 22.6033C97.1589 22.6554 97.1676 22.6944 97.1849 22.7205C97.2052 22.7436 97.2312 22.7552 97.263 22.7552C97.3122 22.7552 97.3658 22.7335 97.4236 22.6901C97.4844 22.6438 97.6349 22.4644 97.875 22.1519L98.0052 22.2517C97.7766 22.6134 97.5423 22.8796 97.3021 23.0503C97.143 23.1603 96.9896 23.2153 96.842 23.2153C96.7292 23.2153 96.6409 23.1834 96.5773 23.1198C96.5136 23.0561 96.4818 22.9737 96.4818 22.8724C96.4818 22.774 96.5006 22.6438 96.5382 22.4818C96.5845 22.2676 96.7162 21.8018 96.9332 21.0842C96.4413 21.8915 96.029 22.4485 95.6962 22.7552C95.3663 23.0619 95.0596 23.2153 94.7761 23.2153C94.643 23.2153 94.5301 23.169 94.4375 23.0764C94.3449 22.9838 94.2986 22.8666 94.2986 22.7248C94.2986 22.5078 94.3623 22.175 94.4896 21.7265L94.8672 20.3854C94.9598 20.0642 95.0061 19.8646 95.0061 19.7864C95.0061 19.7517 94.9931 19.7228 94.967 19.6996C94.9439 19.6736 94.9179 19.6606 94.8889 19.6606C94.8282 19.6606 94.7674 19.6823 94.7066 19.7257C94.6459 19.7691 94.5084 19.9297 94.2943 20.2075L94.1597 20.112C94.3768 19.7763 94.6068 19.5289 94.8499 19.3698C95.035 19.2454 95.2058 19.1831 95.362 19.1831C95.4691 19.1831 95.5559 19.2179 95.6224 19.2873C95.6919 19.3539 95.7266 19.4407 95.7266 19.5477C95.7266 19.704 95.6687 19.9832 95.553 20.3854L95.145 21.7873C95.0321 22.1693 94.9757 22.4109 94.9757 22.5121C94.9757 22.5671 94.9931 22.612 95.0278 22.6467C95.0654 22.6785 95.1146 22.6944 95.1754 22.6944C95.2709 22.6944 95.3953 22.6467 95.5486 22.5512C95.702 22.4557 95.906 22.2445 96.1606 21.9175C96.4181 21.5877 96.6294 21.2795 96.7943 20.993C96.9621 20.7037 97.1401 20.2451 97.3282 19.6172L97.4236 19.2873H98.0834Z" fill="#C92122"/>
<path d="M102.667 19.2873H103.322L102.81 21.0885H103.483C103.63 20.5908 103.918 20.1496 104.346 19.7647C104.775 19.377 105.223 19.1831 105.692 19.1831C105.964 19.1831 106.178 19.2511 106.334 19.3871C106.493 19.5231 106.573 19.7054 106.573 19.934C106.573 20.0845 106.531 20.2075 106.447 20.3029C106.363 20.3955 106.259 20.4418 106.135 20.4418C105.915 20.4418 105.805 20.3304 105.805 20.1076C105.805 20.0208 105.844 19.9224 105.922 19.8125C105.974 19.7401 106 19.6794 106 19.6302C106 19.4595 105.89 19.3741 105.67 19.3741C105.285 19.3741 104.918 19.6533 104.568 20.2118C104.221 20.7702 104.047 21.2998 104.047 21.8003C104.047 22.1302 104.122 22.3863 104.273 22.5686C104.423 22.7509 104.61 22.842 104.832 22.842C105.246 22.842 105.637 22.6062 106.004 22.1345L106.139 22.1996C105.644 22.8767 105.104 23.2153 104.52 23.2153C104.141 23.2153 103.849 23.0865 103.643 22.829C103.438 22.5686 103.335 22.2416 103.335 21.8481C103.335 21.6745 103.36 21.4936 103.409 21.3055H102.749L102.233 23.1111H101.586L102.098 21.3055H101.434C101.208 21.9363 100.89 22.4123 100.479 22.7335C100.068 23.0547 99.6386 23.2153 99.1901 23.2153C98.9152 23.2153 98.704 23.1473 98.5565 23.0113C98.4118 22.8724 98.3394 22.7002 98.3394 22.4948C98.3394 22.3298 98.3857 22.1996 98.4783 22.1042C98.5738 22.0058 98.6809 21.9566 98.7995 21.9566C98.9008 21.9566 98.9789 21.9884 99.0339 22.0521C99.0918 22.1157 99.1207 22.1852 99.1207 22.2604C99.1207 22.3385 99.0787 22.4253 98.9948 22.5208C98.9196 22.6047 98.882 22.6872 98.882 22.7682C98.882 22.8434 98.9124 22.9086 98.9731 22.9635C99.0339 23.0156 99.1077 23.0417 99.1945 23.0417C99.5851 23.0417 99.9598 22.7798 100.319 22.2561C100.68 21.7323 100.861 21.1695 100.861 20.5677C100.861 20.2436 100.784 19.9948 100.631 19.8212C100.481 19.6476 100.304 19.5608 100.102 19.5608C99.6849 19.5608 99.2813 19.798 98.8907 20.2726L98.7735 20.1901C99.2191 19.5188 99.7688 19.1831 100.423 19.1831C100.782 19.1831 101.062 19.3032 101.265 19.5434C101.47 19.7836 101.573 20.1004 101.573 20.4939C101.573 20.6849 101.55 20.8831 101.503 21.0885H102.155L102.667 19.2873Z" fill="#C92122"/>
<path d="M110.8 19.2873L110.045 21.8741C109.932 22.259 109.876 22.502 109.876 22.6033C109.876 22.6554 109.885 22.6944 109.902 22.7205C109.922 22.7436 109.948 22.7552 109.98 22.7552C110.029 22.7552 110.083 22.7335 110.141 22.6901C110.201 22.6438 110.352 22.4644 110.592 22.1519L110.722 22.2517C110.494 22.6134 110.259 22.8796 110.019 23.0503C109.86 23.1603 109.707 23.2153 109.559 23.2153C109.446 23.2153 109.358 23.1834 109.294 23.1198C109.231 23.0561 109.199 22.9737 109.199 22.8724C109.199 22.774 109.218 22.6438 109.255 22.4818C109.302 22.2676 109.433 21.8018 109.65 21.0842C109.158 21.8915 108.746 22.4485 108.413 22.7552C108.083 23.0619 107.777 23.2153 107.493 23.2153C107.36 23.2153 107.247 23.169 107.155 23.0764C107.062 22.9838 107.016 22.8666 107.016 22.7248C107.016 22.5078 107.079 22.175 107.207 21.7265L107.584 20.3854C107.677 20.0642 107.723 19.8646 107.723 19.7864C107.723 19.7517 107.71 19.7228 107.684 19.6996C107.661 19.6736 107.635 19.6606 107.606 19.6606C107.545 19.6606 107.484 19.6823 107.424 19.7257C107.363 19.7691 107.225 19.9297 107.011 20.2075L106.877 20.112C107.094 19.7763 107.324 19.5289 107.567 19.3698C107.752 19.2454 107.923 19.1831 108.079 19.1831C108.186 19.1831 108.273 19.2179 108.339 19.2873C108.409 19.3539 108.444 19.4407 108.444 19.5477C108.444 19.704 108.386 19.9832 108.27 20.3854L107.862 21.7873C107.749 22.1693 107.693 22.4109 107.693 22.5121C107.693 22.5671 107.71 22.612 107.745 22.6467C107.782 22.6785 107.832 22.6944 107.892 22.6944C107.988 22.6944 108.112 22.6467 108.266 22.5512C108.419 22.4557 108.623 22.2445 108.878 21.9175C109.135 21.5877 109.346 21.2795 109.511 20.993C109.679 20.7037 109.857 20.2451 110.045 19.6172L110.141 19.2873H110.8Z" fill="#C92122"/>
<path d="M112.029 19.4522L113.361 19.1831H113.543L113.717 22.3559L115.744 19.2873H116.451L115.648 22.1302C115.565 22.4224 115.523 22.5859 115.523 22.6206C115.523 22.7132 115.565 22.7595 115.648 22.7595C115.787 22.7595 115.991 22.5671 116.26 22.1823L116.386 22.2691C116.221 22.5353 116.017 22.7595 115.774 22.9418C115.534 23.1241 115.34 23.2153 115.193 23.2153C114.953 23.2153 114.832 23.0793 114.832 22.8073C114.832 22.6858 114.879 22.4601 114.971 22.1302L115.648 19.7517L113.361 23.2153H113.166L112.918 19.5911C112.386 21.4025 112.008 22.4601 111.786 22.7639C111.563 23.0648 111.32 23.2153 111.056 23.2153C110.793 23.2153 110.661 23.1068 110.661 22.8897C110.661 22.7943 110.696 22.7132 110.766 22.6467C110.832 22.5772 110.912 22.5425 111.004 22.5425C111.085 22.5425 111.185 22.583 111.304 22.664C111.359 22.7046 111.407 22.7248 111.447 22.7248C111.517 22.7248 111.611 22.6322 111.729 22.447C111.851 22.2618 112.033 21.7917 112.276 21.0364C112.522 20.2783 112.645 19.8443 112.645 19.7344C112.645 19.6013 112.551 19.5347 112.363 19.5347C112.262 19.5347 112.128 19.5535 111.964 19.5911L112.029 19.4522Z" fill="#C92122"/>
<path d="M120.848 20.5417C120.848 20.9757 120.732 21.4054 120.501 21.8307C120.272 22.2561 119.953 22.5932 119.542 22.842C119.131 23.0908 118.732 23.2153 118.344 23.2153C117.947 23.2153 117.623 23.0894 117.372 22.8377C117.123 22.583 116.998 22.2546 116.998 21.8524C116.998 21.4271 117.12 21.0003 117.363 20.572C117.609 20.1438 117.936 19.8053 118.344 19.5564C118.755 19.3076 119.151 19.1831 119.533 19.1831C119.915 19.1831 120.229 19.309 120.475 19.5608C120.724 19.8125 120.848 20.1395 120.848 20.5417ZM120.128 20.2422C120.128 19.9731 120.061 19.7676 119.928 19.6259C119.798 19.4812 119.628 19.4088 119.42 19.4088C118.995 19.4088 118.603 19.7141 118.244 20.3246C117.888 20.9323 117.71 21.537 117.71 22.1389C117.71 22.4138 117.78 22.6264 117.918 22.7769C118.057 22.9245 118.232 22.9983 118.444 22.9983C118.852 22.9983 119.234 22.6959 119.589 22.0911C119.948 21.4835 120.128 20.8672 120.128 20.2422Z" fill="#C92122"/>
<path d="M124.615 22.1649C124.315 22.5266 124.011 22.7928 123.704 22.9635C123.397 23.1314 123.073 23.2153 122.732 23.2153C122.321 23.2153 122 23.0995 121.768 22.868C121.54 22.6366 121.425 22.3255 121.425 21.9349C121.425 21.4922 121.548 21.0567 121.794 20.6285C122.043 20.2002 122.376 19.853 122.793 19.5868C123.212 19.3177 123.623 19.1831 124.025 19.1831C124.341 19.1831 124.576 19.2497 124.733 19.3828C124.889 19.513 124.967 19.6736 124.967 19.8646C124.967 20.044 124.912 20.1973 124.802 20.3246C124.721 20.423 124.621 20.4722 124.503 20.4722C124.413 20.4722 124.338 20.4433 124.277 20.3854C124.219 20.3275 124.19 20.2552 124.19 20.1684C124.19 20.1134 124.2 20.0628 124.221 20.0165C124.244 19.9702 124.289 19.9152 124.355 19.8515C124.425 19.785 124.466 19.7373 124.481 19.7083C124.495 19.6794 124.503 19.649 124.503 19.6172C124.503 19.5564 124.475 19.5058 124.42 19.4653C124.336 19.4074 124.218 19.3785 124.064 19.3785C123.781 19.3785 123.5 19.4783 123.222 19.6779C122.944 19.8776 122.707 20.1612 122.51 20.5286C122.273 20.9742 122.155 21.4198 122.155 21.8654C122.155 22.1606 122.238 22.395 122.406 22.5686C122.574 22.7393 122.803 22.8246 123.092 22.8246C123.315 22.8246 123.535 22.7697 123.752 22.6597C123.972 22.5469 124.218 22.3443 124.49 22.0521L124.615 22.1649Z" fill="#C92122"/>
<path d="M127.059 19.1831L126.495 21.1406C126.747 20.6805 126.961 20.3348 127.137 20.1033C127.412 19.7445 127.68 19.4841 127.94 19.322C128.093 19.2294 128.254 19.1831 128.422 19.1831C128.567 19.1831 128.687 19.2294 128.782 19.322C128.878 19.4146 128.925 19.5333 128.925 19.6779C128.925 19.8197 128.892 20.0049 128.826 20.2335L128.517 21.3359C128.989 20.4534 129.436 19.8342 129.859 19.4783C130.093 19.2815 130.324 19.1831 130.553 19.1831C130.686 19.1831 130.795 19.2294 130.878 19.322C130.965 19.4117 131.009 19.5521 131.009 19.743C131.009 19.9109 130.983 20.0888 130.931 20.2769L130.453 21.9653C130.349 22.3327 130.297 22.5367 130.297 22.5772C130.297 22.6178 130.31 22.6525 130.336 22.6814C130.353 22.7017 130.376 22.7118 130.405 22.7118C130.434 22.7118 130.485 22.6843 130.557 22.6293C130.722 22.502 130.877 22.3342 131.022 22.1259L131.165 22.217C131.093 22.3327 130.964 22.4919 130.779 22.6944C130.596 22.897 130.44 23.0344 130.31 23.1068C130.18 23.1791 130.06 23.2153 129.95 23.2153C129.848 23.2153 129.763 23.1805 129.694 23.1111C129.627 23.0417 129.594 22.9563 129.594 22.855C129.594 22.7161 129.653 22.4369 129.772 22.0173L130.167 20.6241C130.256 20.3029 130.304 20.125 130.31 20.0903C130.319 20.0353 130.323 19.9818 130.323 19.9297C130.323 19.8573 130.307 19.8009 130.275 19.7604C130.24 19.7199 130.201 19.6996 130.158 19.6996C130.036 19.6996 129.908 19.7618 129.772 19.8863C129.372 20.2537 128.999 20.7688 128.652 21.4314C128.423 21.8683 128.209 22.4282 128.01 23.1111H127.354L128.096 20.4852C128.177 20.2017 128.218 20.0121 128.218 19.9167C128.218 19.8385 128.202 19.7807 128.17 19.743C128.138 19.7054 128.099 19.6866 128.053 19.6866C127.957 19.6866 127.856 19.7213 127.749 19.7908C127.576 19.9036 127.351 20.1452 127.076 20.5156C126.804 20.886 126.593 21.2404 126.443 21.579C126.37 21.7381 126.198 22.2488 125.926 23.1111H125.284L126.087 20.2986L126.191 19.934C126.211 19.879 126.221 19.8385 126.221 19.8125C126.221 19.7488 126.192 19.6924 126.135 19.6432C126.077 19.5911 126.003 19.5651 125.913 19.5651C125.876 19.5651 125.771 19.5825 125.601 19.6172L125.562 19.4566L127.059 19.1831Z" fill="#C92122"/>
<path d="M135.74 19.2873L134.984 21.8741C134.872 22.259 134.815 22.502 134.815 22.6033C134.815 22.6554 134.824 22.6944 134.841 22.7205C134.861 22.7436 134.887 22.7552 134.919 22.7552C134.968 22.7552 135.022 22.7335 135.08 22.6901C135.141 22.6438 135.291 22.4644 135.531 22.1519L135.661 22.2517C135.433 22.6134 135.199 22.8796 134.958 23.0503C134.799 23.1603 134.646 23.2153 134.498 23.2153C134.385 23.2153 134.297 23.1834 134.234 23.1198C134.17 23.0561 134.138 22.9737 134.138 22.8724C134.138 22.774 134.157 22.6438 134.194 22.4818C134.241 22.2676 134.372 21.8018 134.589 21.0842C134.098 21.8915 133.685 22.4485 133.352 22.7552C133.023 23.0619 132.716 23.2153 132.432 23.2153C132.299 23.2153 132.186 23.169 132.094 23.0764C132.001 22.9838 131.955 22.8666 131.955 22.7248C131.955 22.5078 132.019 22.175 132.146 21.7265L132.523 20.3854C132.616 20.0642 132.662 19.8646 132.662 19.7864C132.662 19.7517 132.649 19.7228 132.623 19.6996C132.6 19.6736 132.574 19.6606 132.545 19.6606C132.484 19.6606 132.424 19.6823 132.363 19.7257C132.302 19.7691 132.165 19.9297 131.951 20.2075L131.816 20.112C132.033 19.7763 132.263 19.5289 132.506 19.3698C132.691 19.2454 132.862 19.1831 133.018 19.1831C133.125 19.1831 133.212 19.2179 133.279 19.2873C133.348 19.3539 133.383 19.4407 133.383 19.5477C133.383 19.704 133.325 19.9832 133.209 20.3854L132.801 21.7873C132.688 22.1693 132.632 22.4109 132.632 22.5121C132.632 22.5671 132.649 22.612 132.684 22.6467C132.722 22.6785 132.771 22.6944 132.832 22.6944C132.927 22.6944 133.052 22.6467 133.205 22.5512C133.358 22.4557 133.562 22.2445 133.817 21.9175C134.074 21.5877 134.286 21.2795 134.451 20.993C134.618 20.7037 134.796 20.2451 134.984 19.6172L135.08 19.2873H135.74Z" fill="#C92122"/>
<path d="M59.5557 28H4.44458C5.8668 50.4 24.0001 55.7037 32.889 55.5556C53.8668 53.7778 59.4075 36.4444 59.5557 28Z" fill="white"/>
<path d="M55.1112 29.7778C54.8149 35.8519 51.1112 49.6001 40.4446 54.2223" stroke="#1E3E90" stroke-width="0.5"/>
<path d="M9.77791 29.7778C10.0742 35.8519 13.7779 49.6001 24.4446 54.2223" stroke="#1E3E90" stroke-width="0.5"/>
<path d="M41.3336 29.7778C40.8891 36.8889 41.3336 46.2223 35.1113 55.1112" stroke="#1E3E90" stroke-width="0.5"/>
<path d="M23.1113 29.7778C23.5557 36.8889 23.1113 46.2223 29.3335 55.1112" stroke="#1E3E90" stroke-width="0.5"/>
<path d="M7.55566 40.4445C15.852 42.3704 37.3334 45.0667 56.889 40.4445" stroke="#1E3E90" stroke-width="0.5"/>
<path d="M19.5557 51.1111C22.8149 50.6666 32.1779 50.0444 45.3334 51.1111" stroke="#1E3E90" stroke-width="0.5"/>
<path d="M5.3335 32.4445C13.4816 33.9259 35.7335 36 59.5557 32.4445" stroke="#1E3E90" stroke-width="0.5"/>
<rect x="53.3335" y="22.2222" width="4.44444" height="5.33333" fill="#C4C4C4"/>
<path d="M27.5557 22.3334C27.5557 21.7811 28.0034 21.3334 28.5557 21.3334H32.0001V27.5556H27.5557V22.3334Z" fill="#C4C4C4"/>
<rect x="5.3335" y="27.5555" width="54.2222" height="2.66667" fill="#C4C4C4"/>
<rect x="25.7781" y="23.1111" width="1.77778" height="4.44444" fill="#C4C4C4"/>
<rect x="32.0002" y="25.7777" width="1.77778" height="1.77778" fill="#C4C4C4"/>
<rect x="36.4446" y="24.8889" width="1.77778" height="2.66667" fill="#C4C4C4"/>
<rect x="20.4446" y="24.8889" width="1.77778" height="2.66667" fill="#C4C4C4"/>
<rect x="22.2224" y="26.6667" width="0.888889" height="0.888889" fill="#C4C4C4"/>
<rect x="19.5557" y="25.7777" width="0.888889" height="1.77778" fill="#C4C4C4"/>
<rect x="10.6667" y="23.1111" width="5.33333" height="4.44444" fill="#C4C4C4"/>
<path d="M10.6667 23.1112C10.6667 22.1293 11.4627 21.3334 12.4445 21.3334V21.3334V23.1112H10.6667V23.1112Z" fill="#C4C4C4"/>
<rect x="9.77783" y="24" width="0.888889" height="3.55556" fill="#C4C4C4"/>
<path d="M42.6667 26.1111C42.6667 24.4542 44.0099 23.1111 45.6667 23.1111H46.2223V27.5555H42.6667V26.1111Z" fill="#C4C4C4"/>
<circle cx="32.4446" cy="28" r="27.5" stroke="white"/>
<circle cx="32.4446" cy="28" r="27.5" stroke="#1E3E90"/>
<path fill-rule="evenodd" clip-rule="evenodd" d="M51.5555 28.9687L46.2222 48.0798C44.2963 47.9317 40.0889 47.8132 38.6667 48.5243C36.8889 49.4132 41.7778 43.1909 41.7778 43.1909C42.6667 41.265 44.9778 35.7243 47.1111 28.9687H40.8889C36.8889 36.0798 26.3111 50.2132 16 49.8576C11.5556 50.3021 0 48.9688 0 46.3021C0 45.1169 1.33333 41.9465 4.88889 40.5243C3.85185 41.265 2.22222 43.6354 2.22222 45.4132C2.22222 46.7465 3.11111 48.0798 16 48.0798C21.037 47.4872 32.4444 42.8354 37.7778 28.9687H16.8889C17.037 28.3761 17.7778 27.1021 19.5556 26.7465H39.1111C41.1852 22.5983 46.4 13.6798 50.6667 11.1909C40 10.7465 18.6667 10.7465 18.6667 14.3021C18.5348 13.5106 19.6244 11.6692 24.6339 10.2711C25.9721 9.89758 27.3659 9.76506 28.755 9.73981L51.1111 9.33333C52.6116 8.5831 53.6688 8.4596 55.6723 8.22555C56.0426 8.18229 56.4452 8.13526 56.8889 8.0798C58.3248 7.90025 58.2222 8.0798 58.2222 8.0798L52.4444 26.7465L138.667 27.191L51.5555 28.9687ZM52 12.9688C50.6667 13.2651 46.6667 16.4355 41.3333 26.7466H47.5555C48.1481 23.4873 49.8667 16.1688 52 12.9688Z" fill="#C92122"/>
</svg>
