<svg width="345" height="212" viewBox="0 0 345 212" fill="none" xmlns="http://www.w3.org/2000/svg">
<path fill-rule="evenodd" clip-rule="evenodd" d="M170.846 54.2588C178.796 54.2588 186.15 55.8488 192.907 59.0288C199.797 62.2087 205.23 66.8462 209.205 72.9412C213.312 78.9037 215.366 86.0587 215.366 94.4062C215.366 104.344 212.981 113.089 208.211 120.641C203.441 128.061 196.816 133.825 188.336 137.932C179.856 141.907 170.316 143.895 159.716 143.895C148.586 143.895 138.781 141.709 130.301 137.336C121.821 132.964 115.196 126.538 110.426 118.058C105.788 109.445 103.47 99.0437 103.47 86.8538C103.47 72.8088 106.451 59.1612 112.413 45.9112C118.376 32.5287 127.651 21.5312 140.238 12.9187C152.826 4.30625 168.461 0 187.143 0C194.828 0 202.116 0.861244 209.006 2.58374C215.896 4.17374 221.527 6.42625 225.9 9.34125L211.391 32.9925C204.766 28.4875 196.021 26.235 185.156 26.235C172.303 26.235 161.968 29.8787 154.151 37.1662C146.466 44.4537 141.365 53.795 138.847 65.19C147.062 57.9025 157.728 54.2588 170.846 54.2588ZM159.318 119.846C166.341 119.846 172.105 117.792 176.61 113.685C181.247 109.577 183.566 104.079 183.566 97.1888C183.566 91.3587 181.512 86.7875 177.405 83.475C173.43 80.03 168.13 78.3075 161.505 78.3075C154.085 78.3075 148.056 80.3612 143.418 84.4687C138.781 88.5762 136.462 93.81 136.462 100.17C136.462 105.735 138.45 110.439 142.425 114.281C146.532 117.991 152.163 119.846 159.318 119.846ZM95.0025 2.38499L67.1775 141.51H34.98L57.6375 28.2225H29.8125L34.98 2.38499H95.0025ZM304.884 126.471C305.281 124.484 305.48 122.673 305.48 121.039C305.48 117.903 304.773 115.142 303.36 112.757C301.991 110.372 300.025 108.54 297.464 107.259C294.946 105.978 291.965 105.338 288.52 105.338C284.456 105.338 280.835 106.243 277.655 108.054C274.475 109.82 271.979 112.294 270.169 115.474C268.402 118.61 267.519 122.143 267.519 126.074C267.519 129.254 268.247 132.058 269.705 134.488C271.206 136.917 273.326 138.794 276.065 140.119C278.847 141.4 282.071 142.04 285.737 142.04C288.564 142.04 291.258 141.643 293.82 140.848C296.381 140.053 298.656 138.86 300.644 137.27L296.337 130.446C295.101 131.506 293.643 132.323 291.965 132.898C290.331 133.472 288.608 133.759 286.797 133.759C281.011 133.759 277.942 131.33 277.589 126.471H304.884ZM281.895 115.076C283.573 113.751 285.627 113.089 288.056 113.089C290.485 113.089 292.406 113.751 293.82 115.076C295.277 116.357 296.006 118.146 296.006 120.442H278.317C279.024 118.146 280.216 116.357 281.895 115.076ZM256.785 141.51L263.94 105.867H233.465L230.02 120.111C228.96 124.528 227.834 127.796 226.641 129.916C225.493 132.036 223.925 133.096 221.938 133.096C221.673 133.096 221.143 133.052 220.348 132.964L218.095 141.444C220.083 141.974 221.893 142.239 223.527 142.239C226.222 142.239 228.496 141.488 230.351 139.986C232.206 138.485 233.796 136.188 235.121 133.096C236.446 130.005 237.749 125.853 239.03 120.641L240.554 114.281H251.883L246.45 141.51H256.785ZM342.796 114.347H330.672L325.372 141.51H315.037L320.337 114.347H308.412L310.134 105.867H344.518L342.796 114.347ZM89.3935 163.505L82.3048 199.148H72.4998L73.1623 195.636C70.2031 198.33 66.5593 199.678 62.231 199.678C59.4485 199.678 56.8868 199.037 54.546 197.756C52.2052 196.475 50.3281 194.643 48.9148 192.258C47.5456 189.828 46.861 186.98 46.861 183.711C46.861 179.78 47.7223 176.247 49.4448 173.111C51.2114 169.931 53.5964 167.458 56.5998 165.691C59.6031 163.88 62.9156 162.975 66.5373 162.975C72.0139 162.975 75.8785 164.764 78.131 168.341L79.0585 163.505H89.3935ZM65.411 191.131C67.4427 191.131 69.2535 190.645 70.8435 189.674C72.4335 188.658 73.6702 187.267 74.5535 185.5C75.4368 183.733 75.8785 181.702 75.8785 179.405C75.8785 176.976 75.1498 175.055 73.6923 173.641C72.2789 172.228 70.2914 171.521 67.7298 171.521C65.6981 171.521 63.8873 172.029 62.2973 173.045C60.7073 174.017 59.4706 175.386 58.5873 177.153C57.7039 178.919 57.2623 180.951 57.2623 183.248C57.2623 185.677 57.9689 187.598 59.3823 189.011C60.8398 190.425 62.8493 191.131 65.411 191.131ZM7.155 163.505H17.4238L14.6413 177.418H30.1438L32.9263 163.505H43.195L36.1063 199.148H25.7713L28.4213 185.831H12.985L10.335 199.148H0L7.155 163.505ZM145.803 164.896C143.462 163.615 140.901 162.975 138.118 162.975C133.79 162.975 130.146 164.322 127.187 167.016L127.916 163.505H118.111L108.438 212H118.773L122.285 194.378C124.537 197.911 128.38 199.678 133.812 199.678C137.478 199.678 140.812 198.794 143.816 197.028C146.819 195.217 149.182 192.743 150.905 189.608C152.671 186.428 153.555 182.872 153.555 178.941C153.555 175.673 152.848 172.846 151.435 170.461C150.065 168.032 148.188 166.177 145.803 164.896ZM138.052 189.674C136.462 190.645 134.651 191.131 132.62 191.131C130.058 191.131 128.07 190.425 126.657 189.011C125.244 187.598 124.537 185.677 124.537 183.248C124.537 180.951 124.979 178.919 125.862 177.153C126.745 175.386 127.982 174.017 129.572 173.045C131.162 172.029 132.951 171.521 134.938 171.521C137.5 171.521 139.487 172.228 140.901 173.641C142.358 175.055 143.087 176.976 143.087 179.405C143.087 181.702 142.645 183.733 141.762 185.5C140.879 187.267 139.642 188.658 138.052 189.674ZM201.007 163.505H211.276L204.187 199.148H193.852L201.007 163.505ZM180.072 174.9C184.224 174.9 187.36 175.761 189.48 177.484C191.644 179.162 192.726 181.68 192.726 185.036C192.726 187.863 191.975 190.336 190.473 192.456C189.016 194.576 186.94 196.233 184.246 197.425C181.552 198.573 178.416 199.148 174.838 199.148H157.15L164.305 163.571H174.573L172.321 174.9H180.072ZM174.838 191.86C177.091 191.86 178.902 191.308 180.271 190.204C181.64 189.055 182.325 187.532 182.325 185.633C182.325 182.938 180.558 181.591 177.025 181.591H170.996L168.942 191.86H174.838ZM231.507 163.505H221.238L214.083 199.148H224.418L227.068 185.831H242.505L239.855 199.148H250.19L257.278 163.505H247.01L244.227 177.418H228.725L231.507 163.505ZM297.316 199.148H285.391L278.964 185.633H273.134L270.418 199.148H260.083L267.238 163.505H277.573L274.79 177.351H280.157L292.678 163.505H303.941L287.511 181.26L297.316 199.148ZM312.225 184.109H339.52C339.917 182.121 340.116 180.31 340.116 178.676C340.116 175.54 339.409 172.78 337.996 170.395C336.627 168.01 334.662 166.177 332.1 164.896C329.582 163.615 326.601 162.975 323.156 162.975C319.093 162.975 315.471 163.88 312.291 165.691C309.111 167.458 306.616 169.931 304.805 173.111C303.038 176.247 302.155 179.78 302.155 183.711C302.155 186.891 302.884 189.696 304.341 192.125C305.843 194.554 307.963 196.431 310.701 197.756C313.484 199.037 316.708 199.678 320.374 199.678C323.2 199.678 325.894 199.28 328.456 198.485C331.018 197.69 333.292 196.498 335.28 194.908L330.974 188.084C329.737 189.144 328.279 189.961 326.601 190.535C324.967 191.109 323.244 191.396 321.434 191.396C315.648 191.396 312.578 188.967 312.225 184.109ZM316.531 172.714C318.209 171.389 320.263 170.726 322.692 170.726C325.122 170.726 327.043 171.389 328.456 172.714C329.914 173.995 330.642 175.783 330.642 178.08H312.954C313.66 175.783 314.853 173.995 316.531 172.714Z" fill="white" fill-opacity="0.4"/>
</svg>
