<svg width="50" height="50" viewBox="0 0 50 50" fill="none" xmlns="http://www.w3.org/2000/svg">
<g opacity="0.7">
<mask id="mask0_40_237" style="mask-type:alpha" maskUnits="userSpaceOnUse" x="0" y="0" width="50" height="50">
<circle cx="25" cy="25" r="25" fill="#C4C4C4"/>
</mask>
<g mask="url(#mask0_40_237)">
<path d="M48.0475 25H0.809448C2.0285 44.2 17.5714 48.746 25.1904 48.619C43.1714 47.0952 47.9206 32.2381 48.0475 25Z" fill="white"/>
<path d="M44.2379 26.5234C43.984 31.7298 40.8094 43.5139 31.6665 47.4758" stroke="#FFD238" stroke-width="0.5"/>
<path d="M5.38084 26.5234C5.63481 31.7298 8.80941 43.5139 17.9523 47.4758" stroke="#FFD238" stroke-width="0.5"/>
<path d="M32.4285 26.5234C32.0476 32.6187 32.4285 40.6187 27.0952 48.2377" stroke="#FFD238" stroke-width="0.5"/>
<path d="M16.8094 26.5234C17.1903 32.6187 16.8094 40.6187 22.1427 48.2377" stroke="#FFD238" stroke-width="0.5"/>
<path d="M3.4762 35.668C10.5873 37.3188 29 39.6299 45.7619 35.668" stroke="#FFD238" stroke-width="0.5"/>
<path d="M13.7617 44.8095C16.5554 44.4286 24.5808 43.8952 35.857 44.8095" stroke="#FFD238" stroke-width="0.5"/>
<path d="M1.57129 28.8105C8.55542 30.0804 27.6284 31.8582 48.0475 28.8105" stroke="#FFD238" stroke-width="0.5"/>
<rect x="42.7142" y="20.0469" width="3.80952" height="4.57143" fill="#C4C4C4"/>
<path d="M20.619 20.2852C20.619 19.7329 21.0667 19.2852 21.619 19.2852H24.4285V24.6185H20.619V20.2852Z" fill="#C4C4C4"/>
<rect x="1.57129" y="24.6191" width="46.4762" height="2.28571" fill="#C4C4C4"/>
<rect x="19.0951" y="20.8105" width="1.52381" height="3.80952" fill="#C4C4C4"/>
<rect x="24.4286" y="23.0938" width="1.52381" height="1.52381" fill="#C4C4C4"/>
<rect x="28.2382" y="22.334" width="1.52381" height="2.28571" fill="#C4C4C4"/>
<rect x="14.5237" y="22.334" width="1.52381" height="2.28571" fill="#C4C4C4"/>
<rect x="16.0476" y="23.8574" width="0.761905" height="0.761905" fill="#C4C4C4"/>
<rect x="13.7617" y="23.0938" width="0.761905" height="1.52381" fill="#C4C4C4"/>
<rect x="6.1427" y="20.8105" width="4.57143" height="3.80952" fill="#C4C4C4"/>
<path d="M6.1427 20.809C6.1427 19.9674 6.82493 19.2852 7.66651 19.2852V20.809H6.1427Z" fill="#C4C4C4"/>
<rect x="5.38086" y="21.5723" width="0.761905" height="3.04762" fill="#C4C4C4"/>
<path d="M33.5714 23.8105C33.5714 22.1537 34.9146 20.8105 36.5714 20.8105H36.619V24.6201H33.5714V23.8105Z" fill="#C4C4C4"/>
<circle cx="24.8094" cy="25" r="23.5" stroke="white"/>
<circle cx="24.8094" cy="25" r="23.5" stroke="#FFD238"/>
<path fill-rule="evenodd" clip-rule="evenodd" d="M41.1905 25.8306L36.619 42.2116C34.9682 42.0846 31.3619 41.983 30.1428 42.5925C28.619 43.3544 32.8095 38.0211 32.8095 38.0211C33.5714 36.3703 35.5524 31.6211 37.381 25.8306H32.0476C28.619 31.9258 19.5524 44.0401 10.7143 43.7354C6.90476 44.1163 -3 42.9735 -3 40.6878C-3 39.6719 -1.85714 36.9544 1.19048 35.7354C0.301587 36.3703 -1.09524 38.4021 -1.09524 39.9259C-1.09524 41.0687 -0.333333 42.2116 10.7143 42.2116C15.0317 41.7036 24.8095 37.7163 29.381 25.8306H11.4762C11.6032 25.3227 12.2381 24.2306 13.7619 23.9258H30.5238C32.3016 20.3703 36.7714 12.7258 40.4286 10.5925C31.2857 10.2116 13 10.2116 13 13.2592C12.8895 12.5961 13.7793 11.0732 17.8293 9.88571C19.1625 9.4948 20.5564 9.36852 21.9455 9.34326L40.8095 9.00028C42.0956 8.35722 43.0018 8.25136 44.7191 8.05075C45.0365 8.01367 45.3816 7.97336 45.7619 7.92582C46.9927 7.77193 46.9048 7.92582 46.9048 7.92582L41.9524 23.9258L115.857 24.3068L41.1905 25.8306ZM41.5715 12.1166C40.4287 12.3706 37.0001 15.088 32.4287 23.9261H37.762C38.2699 21.1325 39.7429 14.8595 41.5715 12.1166Z" fill="#C92122"/>
</g>
</g>
</svg>
